<svg xmlns="http://www.w3.org/2000/svg" width="256" height="256"><path fill="#1976D2" fill-opacity=".016" fill-rule="evenodd" d="M0 128.004v128.004l128.25-.254 128.25-.254.254-127.75L257.008 0H0zm.485.496c0 70.4.119 99.053.265 63.672.146-35.38.146-92.98 0-128C.604 29.153.485 58.1.485 128.5"/><path fill="#1976D2" fill-opacity=".211" fill-rule="evenodd" d="M117.086 1.717c-6.401 2.261-12.515 8.777-14.123 15.051-1.065 4.154-2.072 5.629-5.489 8.038-6.057 4.269-9.631 9.409-10.229 14.712-1.164 10.325 6.273 19.952 18.868 24.423 2.963 1.052 4.487 1.943 3.387 1.98-1.1.037-9.95.592-19.666 1.233l-17.666 1.165-3.079-2.59C64.945 62.241 62.617 61.641 58.5 63c-10.434 3.443-9.719 17.555.991 19.564 3.621.68 9.211-1.623 10.2-4.201.426-1.11 1.448-1.377 3.699-.967C79.411 78.493 104.248 81 109.095 81H114v44.222l-3.815 4.639c-5.608 6.819-7.663 9.981-11.5 17.696-8.662 17.417-10.409 36.621-4.699 51.647 2.114 5.566 1.884 5.676-6.128 2.919-10.579-3.64-22.019-10.668-25.155-15.454l-1.526-2.328 7.912.458c8.418.487 9.718-.3 5.049-3.058-4.654-2.749-14.69-14.137-19.304-21.904-2.361-3.973-6.168-11.891-8.46-17.594-2.292-5.704-4.386-10.588-4.652-10.855-.893-.893-7.762 7.994-10.497 13.582-2.31 4.717-2.761 7.084-3.071 16.098-.415 12.1 1.05 19.386 5.874 29.212C37.152 196.643 45.063 209 46.011 209c.291 0 .36-3.331.154-7.402-.595-11.776.437-12.033 7.438-1.852 7.38 10.734 14.742 16.896 27.397 22.935 32.503 15.51 33.712 16.179 39.816 22.022l6.056 5.797 5.252-4.665c7.316-6.497 18.219-12.872 32.876-19.222l12.5-5.415.304 4.385c.437 6.305-2.642 12.658-7.675 15.836-4.811 3.037-6.358 5.583-5.939 9.776.463 4.632 2.677 5.509 8.394 3.326 6.424-2.453 12.675-8.413 15.519-14.794 1.965-4.411 2.343-6.988 2.422-16.498l.092-11.272 4.551-4.728c5.055-5.252 10.798-13.374 10.895-15.409.035-.726.526-.195 1.09 1.18.565 1.375.768 5.088.452 8.25-.319 3.196-.171 5.75.333 5.75 1.78 0 10.011-10.454 12.982-16.488 6.575-13.357 7.867-31.317 3.145-43.714-2.223-5.835-10.784-16.566-12.051-15.105-.384.444-1.941 4.407-3.46 8.807-6.631 19.206-14.474 31.61-24.511 38.768-3.264 2.328-5.959 4.619-5.989 5.091-.03.473 3.321.689 7.446.481 4.125-.208 7.5-.09 7.5.263 0 .942-8.346 8.477-10.908 9.848-1.767.946-3.112.821-6.894-.638-6.664-2.572-19.751-2.326-27.627.52-3.261 1.178-6.065 2.007-6.23 1.841-.165-.165-.58-18.046-.921-39.737l-.621-39.437 4.419-5.271c5.717-6.82 10.546-16.602 12.274-24.862.756-3.612 1.585-6.777 1.842-7.035.258-.257 5.125-.899 10.817-1.427s11.14-1.204 12.106-1.502c1.123-.346 2.866.567 4.827 2.527 9.802 9.802 23.537-4.852 14.209-15.159-3.513-3.882-11.936-3.154-15.057 1.302-1.093 1.561-2.524 1.917-7.543 1.876-7.618-.064-19.403-1.325-20.245-2.168-.343-.342-.982-2.121-1.42-3.952-.439-1.831-1.113-4.093-1.5-5.027-.52-1.258.342-2.423 3.33-4.5 4.624-3.214 6.544-6.85 5.602-10.607-.742-2.957-1.948-4.14-5.252-5.153-1.866-.573-3.019.093-6.21 3.584-2.155 2.357-4.191 4.014-4.524 3.681-.333-.332.842-3.463 2.611-6.956 2.539-5.014 3.207-7.555 3.171-12.068-.14-17.503-18.597-29.273-36.17-23.066m4.137 14.84c-3.032 2.123-2.861 4.443.327 4.443 2.875 0 7.443 2.109 12.077 5.575 3.491 2.611 4.373 2.305 4.373-1.519 0-7.334-10.701-12.755-16.777-8.499m-3.64 7.086c-.91 2.372-.39 2.434 2.278.271 2.216-1.796 2.237-1.914.357-1.914-1.102 0-2.288.739-2.635 1.643m3.426 1.647c-2.494 1.261-4.057 4.71-2.135 4.71.561 0 3.055-1.082 5.543-2.405 3.227-1.716 4.078-2.575 2.971-3-2.255-.865-3.582-.72-6.379.695m-25.065 2.815c-1.314 2.455-.547 7.712 1.528 10.471 1.301 1.731 1.425 1.196 1.237-5.316-.217-7.528-.857-8.721-2.765-5.155M100.031 30c0 1.925.436 4.175.969 5 .727 1.125.969.625.969-2 0-1.925-.436-4.175-.969-5-.727-1.125-.969-.625-.969 2m24.137-.313c-2.471 1.218-2.97 1.844-1.931 2.426 1.598.894 13.164-2.379 12.114-3.428-1.224-1.225-6.771-.679-10.183 1.002m-32.462 2.645c-1.424 3.695-.691 6.503 2.371 9.079 5.171 4.351 6.242 2.999 1.661-2.096-1.08-1.201-2.27-3.676-2.645-5.5-.545-2.652-.822-2.949-1.387-1.483m37.408.822c-5.641 1.622-2.309 3.181 4.99 2.334 5.666-.658 6.1-.866 4.4-2.109-2.144-1.567-4.523-1.625-9.39-.225m-27.954 6.394c-2.107 4.626 2.333 10.299 9.717 12.417 2.923.838 3.123.73 3.123-1.689 0-1.771-1.24-3.645-3.941-5.958-2.168-1.855-4.224-4.261-4.568-5.346-.869-2.739-2.946-2.463-4.331.576m29.983-1.717c-2.01 1.362-.273 2.002 7.439 2.745 6.582.633 6.837.58 5.243-1.095-1.885-1.981-10.533-3.106-12.682-1.65m22.414 2.392c-1.605 2.291-1.983 6.585-.927 10.527 1.169 4.36 2.37 2.175 2.37-4.309 0-4.118.372-6.329 1-5.941.55.34 1 2.365 1 4.5 0 4.497 1.177 5.68 3.419 3.438 2.145-2.145 1.987-4.653-.492-7.803-2.531-3.219-4.324-3.335-6.37-.412M89 41.754c0 3.795 5.135 6.999 9.671 6.034 1.43-.304 1.065-.785-1.671-2.205-1.925-.999-4.513-2.743-5.75-3.874L89 39.651zm46.515 2.123C137.581 45.858 148 47.486 148 45.828c0-1.21-3.566-2.411-9.485-3.195-4.923-.651-4.961-.635-3 1.244M139 49.266c.825.834 3.863 2.191 6.75 3.016 4.347 1.241 5.25 1.266 5.25.144 0-1.9-3.105-3.349-8.71-4.064-4.275-.546-4.629-.449-3.29.904m-48.002.784c.009 2.508 5.571 3.708 10.752 2.32 4.137-1.109 2.313-2.196-4.252-2.535-3.576-.184-6.501-.087-6.5.215M102.5 54c-1.1.473-3.334.891-4.964.93-2.738.065-2.84.194-1.337 1.698 1.995 1.995 6.899 1.289 11.301-1.627l3-1.988-3 .064c-1.65.035-3.9.45-5 .923m29.795-.295c-.663.238-2.8 2.651-4.749 5.363-2.977 4.145-3.252 4.932-1.719 4.932 2.138 0 5.281-3.304 7.02-7.379 1.341-3.145 1.262-3.565-.552-2.916m1.876 4.795c-1.638 3.025-2.597 5.5-2.131 5.5 1.975 0 6.01-4.748 6.586-7.75.959-4.994-1.093-3.958-4.455 2.25m7.767-3.615c.96 1.792 12.062 6.537 12.062 5.155 0-1.578-4.037-4.247-8.417-5.565-4.347-1.308-4.552-1.285-3.645.41m-35.375 2.925c-3.422 2.339-3.66 2.731-1.817 3.001 2.391.35 7.244-1.889 9.199-4.245 2.229-2.686-2.894-1.822-7.382 1.244m9.408-.756c-.604 1.129-2.532 2.927-4.285 3.996l-3.186 1.943 3.086.003c2.338.003 3.957-.966 6.677-3.996 3.487-3.884 3.521-4 1.199-4-1.389 0-2.852.861-3.491 2.054m4.583 2.446c-3.084 3.763-3.38 4.5-1.808 4.5 1.711 0 4.702-2.652 8.176-7.25 1.152-1.524 1.065-1.75-.679-1.75-1.16 0-3.553 1.893-5.689 4.5m18.775.44c-1.013 2.683-.957 2.844.646 1.844 1.031-.644 1.557-1.858 1.274-2.941-.619-2.367-.611-2.372-1.92 1.097m4.671.316c0 .705 2.7 2.767 6 4.581 6.169 3.391 7.728 3.135 3.736-.615-3.191-2.998-9.736-5.664-9.736-3.966m-3.333 3.411c-1.117 1.116-.749 2 .833 2 .825 0 1.5-.6 1.5-1.334 0-1.419-1.229-1.77-2.333-.666m5.494 2.917c.186.963 2.476 3.254 5.089 5.091 4.22 2.968 4.75 3.125 4.75 1.401 0-1.859-2.837-4.398-7.839-7.017-2.049-1.073-2.297-1.007-2 .525m.839 6.742c0 1.625 4.172 5.674 5.847 5.674.669 0 1.624 1.013 2.122 2.25.878 2.184.906 2.171.968-.427.045-1.918-.994-3.549-3.665-5.75-4.085-3.368-5.272-3.761-5.272-1.747m.041 5.26C147.007 80.319 153.447 90 154.634 90c.201 0 .366-1.067.366-2.371 0-1.359-1.691-4.242-3.959-6.75-3.31-3.662-3.966-4.037-4-2.293M140 87.559c0 6.202 1.335 6.497 2.957.655C144.417 82.96 144.269 82 142 82c-1.76 0-2 .667-2 5.559M146.039 85c-.003 1.375 1.275 4.674 2.84 7.332 2.189 3.718 2.992 4.446 3.486 3.158.697-1.816-1.26-6.52-4.365-10.49l-1.956-2.5zM144 91.417c0 1.329.932 4.591 2.071 7.249 1.762 4.111 2.219 4.567 3.063 3.059.735-1.313.343-3.187-1.516-7.248-2.748-6.004-3.618-6.739-3.618-3.06m-2.516 4.908c-.437 1.055.009 4.349 1.057 7.81 1.408 4.651 2.017 5.619 2.731 4.343 1.029-1.838.315-6.456-1.697-10.978-1.162-2.611-1.433-2.763-2.091-1.175M141.232 110c0 1.925.206 2.713.457 1.75.252-.963.252-2.537 0-3.5-.251-.963-.457-.175-.457 1.75m-30.625 22.582c-.892 2.324-.735 5.416.5 9.863 1.625 5.854 3.178 2.198 2.313-5.445-.672-5.946-1.642-7.469-2.813-4.418m-3.912 4.056c-1.068 1.068-.826 7.194.453 11.463 1.27 4.237 2.877 4.288 2.808.09-.064-3.923-2.447-12.366-3.261-11.553m-4.251 6.656c-.988 2.561.161 8.467 2.248 11.562 1.707 2.529 1.798 2.551 2.1.517.173-1.17-.579-4.77-1.671-8-1.474-4.36-2.164-5.411-2.677-4.079m9.119 7.378c-4.226 6.185-6.745 15.639-7.281 27.328-.413 9-.182 11.295 1.621 16.066 1.156 3.061 3.379 6.788 4.938 8.282l2.836 2.717.644-28.716c.355-15.794.468-28.894.251-29.11-.217-.217-1.571 1.328-3.009 3.433m-12.516 1.192c-.046 3.324 3.557 11.136 5.137 11.136 1.561 0 .704-3.534-2.184-9-2.892-5.474-2.906-5.484-2.953-2.136M96 158.329c0 1.28 1.463 4.541 3.25 7.245 2.877 4.353 3.288 4.651 3.58 2.592.184-1.298-.81-4.049-2.25-6.224-1.419-2.145-2.58-4.359-2.58-4.921 0-.561-.45-1.021-1-1.021s-1 1.048-1 2.329m-2 7.151c0 1.655 1.443 4.126 3.975 6.809 4.851 5.139 5.377 3.095.932-3.616-3.852-5.815-4.907-6.501-4.907-3.193m-1 7.366c0 2.24 1.04 3.766 4.5 6.6 3.107 2.547 4.5 3.213 4.5 2.154 0-.843-2.025-3.813-4.5-6.6-4.477-5.041-4.5-5.052-4.5-2.154m-1 6.426c0 2.1 3.295 5.939 6.895 8.035 5.123 2.98 3.894-.46-1.895-5.307-3.134-2.624-5-3.642-5-2.728m0 6.209c0 2.589 2.643 5.652 6.48 7.509 5.393 2.611 6.782 2.105 3.241-1.179-2.545-2.36-9.721-7.033-9.721-6.33m2.189 9.262c.385 1.999 5.141 4.798 9.517 5.601 5.207.956 3.026-1.701-3.823-4.656-5.088-2.195-5.963-2.34-5.694-.945m68.311-.875c-2.303.485-3.502 1.677-5.162 5.132-1.188 2.475-1.939 4.725-1.667 4.999.272.275 1.843-1.075 3.491-3a392.398 392.398 0 0 1 5.022-5.749c1.114-1.238 1.866-2.197 1.671-2.132-.195.065-1.705.403-3.355.75m-9.356 2.459c-1.361 1.64-4.144 8.196-4.144 9.763 0 2.15 3.07-1.294 5.595-6.277 1.833-3.617 2.092-4.813 1.044-4.813-.767 0-1.89.597-2.495 1.327m10.96 2.208c-1.707 1.944-3.104 3.744-3.104 4 0 1.567 3.525-.094 7.5-3.535l4.622-4h-2.958c-2.133 0-3.822.985-6.06 3.535m-17.671-.073c-.887 1.354-1.852 4.391-2.145 6.75-.476 3.844-.372 4.133 1.005 2.788 1.857-1.814 4.978-12 3.676-12-.508 0-1.649 1.108-2.536 2.462m-5.308.887c-.949 1.144-3.125 10.048-3.125 12.787 0 1.54 1.766.914 2.5-.886 1.313-3.218 3.17-13.25 2.453-13.25-.389 0-1.212.607-1.828 1.349m29.434.183c-2.47 1.868-.846 1.847 2.441-.032 1.45-.829 1.87-1.431 1-1.433-.825-.002-2.374.657-3.441 1.465m-73.426 2.562c1.885 2.862 10.17 5.003 12.057 3.116.848-.848.443-1.399-1.592-2.173-1.501-.57-3.853-1.037-5.229-1.037-1.375 0-3.472-.52-4.66-1.156-2.099-1.123-2.115-1.087-.576 1.25m37.366 2.656c-1.534 3.753-3.192 12.25-2.391 12.25 1.621 0 3.884-4.663 4.522-9.315.646-4.713-.666-6.52-2.131-2.935m-7.704 7.538c-2.479 4.668-3.143 6.712-2.18 6.712 2.291 0 5.231-3.665 5.93-7.391 1.195-6.365-.138-6.124-3.75.679M104 207.909l-3.5.645 2.413 1.346c1.97 1.098 3.42 1.12 7.892.119 9.019-2.018 2.932-3.906-6.805-2.11m18.25 3.442c-.59 1.294-3.024 3.318-5.411 4.5l-4.339 2.147 3.559.001c3.852.001 5.735-1.128 8.295-4.972 1.996-2.998 2.075-4.027.307-4.027-.737 0-1.822 1.058-2.411 2.351m-9.25.149c-1.375.786-3.539 1.445-4.809 1.465-1.278.019-2.033.481-1.691 1.035 1.048 1.695 7.825 1.099 11.25-.989 1.787-1.09 3.25-2.213 3.25-2.496 0-1.074-5.606-.384-8 .985m72.19 5.361c-.987.626-.679 1.244 1.25 2.508 2.56 1.677 3.094 1.187 1.953-1.787-.683-1.78-1.31-1.921-3.203-.721m-4.19 4.055c0 .504 1.8 2.342 4 4.084 3.707 2.936 4 3.015 4 1.084 0-1.146-.9-2.984-2-4.084-2.034-2.034-6-2.751-6-1.084m-1 3.82c0 1.178 1.8 4.222 4 6.764 3.989 4.609 4 4.614 4 1.764 0-2.017-1.178-4.008-4-6.764-3.54-3.456-4-3.659-4-1.764m.045 7.514c.025 1.238 1.13 4.275 2.455 6.75l2.41 4.5.041-3.5c.037-3.076-3.035-10-4.436-10-.283 0-.495 1.012-.47 2.25m-2.291 3.948c-.74 1.928 1.56 13.154 2.502 12.212 1.208-1.207.782-8.714-.639-11.277-.981-1.77-1.452-2.006-1.863-.935m-4.106 5.986c-.342 1.274-.627 3.723-.634 5.444-.008 1.72-.715 3.709-1.571 4.419-1.389 1.153-1.481.721-.856-3.989.685-5.167.654-5.257-1.431-4.141-2.47 1.321-3.645 4.997-2.745 8.583.78 3.108 2.343 3.149 6.691.178 3.063-2.093 3.378-2.75 3.193-6.655-.239-5.073-1.736-7.243-2.647-3.839"/><path fill="#1976D2" fill-opacity=".475" fill-rule="evenodd" d="M118.173 1.849c-7.183 2.557-12.753 8.142-14.894 14.936-1.367 4.334-2.579 5.999-6.429 8.825-8.132 5.97-11.047 13.043-8.753 21.238 1.638 5.849 8.693 13.142 15.068 15.577l4.587 1.752 4.874-4.578c4.78-4.489 7.977-6.33 9.08-5.227 1.047 1.047-5.206 7.505-8.507 8.786-2.694 1.045-2.97 1.397-1.5 1.917 1.802.637-4.249 1.266-27.699 2.88l-12.5.86-2.869-2.907C66.347 63.592 64.886 63 61.458 63 55.753 63 51 67.388 51 72.654c0 8.181 11 12.595 17.018 6.828l2.628-2.517 21.677 2.247L114 81.458v22.616c0 21.772-.079 22.687-2.119 24.521-6.75 6.07-15.286 21.564-18.445 33.479l-1.703 6.426 5.133 5.282c3.315 3.41 5.134 6.141 5.134 7.707 0 2.277-.303 2.145-4.979-2.162-2.738-2.522-4.793-4.887-4.566-5.254.227-.368-.04-1.322-.595-2.121-2.053-2.96-.26 20.095 2.027 26.048 1.161 3.025 2.112 5.813 2.112 6.196.001 1.186-10.141-2.117-17.644-5.746C71.63 195.198 61 186.903 61 184.907c0-.499 3.487-.912 7.75-.918l7.75-.011-3.5-2.676c-10.726-8.2-18.932-19.902-26.07-37.172-2.632-6.37-5.172-11.711-5.644-11.868-1.284-.428-7.953 8.731-10.423 14.315-1.511 3.415-2.303 7.627-2.617 13.91-.726 14.53 2.936 26.508 12.492 40.861L45.5 208.5l.297-7.997c.163-4.398.681-8.381 1.151-8.851.473-.473 3.071 2.429 5.817 6.497 9.676 14.331 14.813 18.148 40.065 29.773 18.974 8.734 21.407 10.202 28.916 17.443l5.246 5.059 4.254-4.07c7.536-7.211 18.883-13.777 37.804-21.875 6.453-2.762 8.481-3.264 9.154-2.264 1.187 1.762.124 8.203-2.12 12.848-1.022 2.115-1.465 3.979-.985 4.141.48.163 1.168 2.45 1.528 5.082.566 4.141.343 5.117-1.661 7.25-3.308 3.522-.882 3.043 4.206-.83 2.909-2.215 5.474-5.539 7.824-10.142 3.345-6.551 3.497-7.309 3.5-17.465l.004-10.618 6.265-7.443c3.445-4.094 7.045-9.141 8-11.215.954-2.074 2.073-3.783 2.485-3.797.412-.014.767 3.912.788 8.724l.039 8.75 4.478-5c8.312-9.28 14.381-25.101 14.428-37.614.041-11.077-4.773-24.436-10.934-30.339-3.59-3.44-4.155-3.057-6.578 4.453-6.575 20.383-16.077 34.799-28.471 43.201-2.453 1.662-2.354 1.695 5.318 1.747l7.818.052-2.162 3.037c-1.19 1.67-4.412 4.552-7.161 6.403l-4.998 3.366-4.444-1.966c-6.651-2.942-9.178-2.223-13.744 3.91-3.391 4.556-6.729 6.838-6.579 4.5.149-2.329 3.806-7.886 5.952-9.044 4.266-2.304-9.781-.839-15.279 1.593l-4.657 2.06-.576-3.179c-.526-2.908-.122-72.508.49-84.18l.262-5 .63 4.436.63 4.436 2.605-3.436c4.512-5.952 8.711-14.213 10.478-20.614l1.705-6.177-4.736-4.31c-4.751-4.323-7.138-7.582-6.225-8.496.857-.857 8.585 4.809 9.2 6.746.487 1.533 1.328 1.778 4.782 1.389 24.816-2.79 22.757-2.783 25.595-.085 3.395 3.228 7.38 4.15 11.163 2.583 5.994-2.482 7.923-11.532 3.481-16.326-2.024-2.184-3.329-2.646-7.47-2.646-4.404 0-5.287.363-7.212 2.968-2.069 2.798-2.513 2.941-7.78 2.512-3.072-.25-9.093-.726-13.379-1.057-7.614-.588-7.806-.668-8.372-3.496-.318-1.592-.943-2.67-1.388-2.394-.445.275-1.053.104-1.352-.38-.299-.483-2.558-1.443-5.019-2.132-4.348-1.217-8.507-4.424-7.301-5.629 1.101-1.101 10.707 2.746 12.332 4.938 1.603 2.163 1.607 2.161.999-.512-.522-2.294.04-3.214 3.892-6.37 3.87-3.171 4.502-4.212 4.502-7.413 0-6.853-7.043-9.715-10.542-4.285-.975 1.513-2.397 3.121-3.159 3.574-.763.454-1.146 1.581-.853 2.507.455 1.432-.17 1.652-4.206 1.48-4.542-.194-4.587-.17-1.076.572 4.07.86 8.836 3.632 8.836 5.14 0 1.249-.911 1.23-5.101-.109-7.876-2.516-9.058-3.198-8.597-4.962.297-1.133-.376-2.12-1.923-2.825-4.172-1.901-2.866-3.464 2.371-2.837 2.613.312 5.425.819 6.25 1.127 2.18.812 8.014-12.801 7.956-18.563-.094-9.371-5-17.271-13.198-21.253-7.287-3.54-14.84-4.153-21.585-1.752m2.001 15.465c-2.793 2.974-2.739 3.686.279 3.686 3.089 0 6.851 1.613 12.367 5.303 2.376 1.589 4.543 2.668 4.814 2.396.966-.966.64-6.319-.517-8.481-2.834-5.294-13.052-7.045-16.943-2.904m-3.518 6.892c-.777 2.973-.617 2.984 2.844.209l3-2.405-2.633-.005c-1.877-.004-2.8.629-3.211 2.201m3.567 1.351c-1.928 1.349-3.196 5.443-1.688 5.443 1.465 0 10.372-5.76 9.797-6.335-1.204-1.204-5.846-.694-8.109.892M96.2 27.2c-1.689 1.689-1.491 6.385.442 10.457 2.285 4.816 3.771 2.868 2.292-3.005-.643-2.554-.934-5.546-.645-6.648.59-2.256-.296-2.597-2.089-.804m3.8 4.859c0 3.118.384 4.822 1 4.441.55-.34 1-2.616 1-5.059S101.55 27 101 27s-1 2.277-1 5.059m25.078-3.009c-3.31 1.502-4.135 2.293-3.282 3.146.853.853 2.683.673 7.274-.717 5.477-1.659 5.942-1.997 4.341-3.168-2.341-1.712-3.075-1.647-8.333.739M91.04 33.111c-1.026 2.17-.956 3.151.411 5.794 1.599 3.093 5.951 6.027 7.154 4.823.328-.328-.605-2.172-2.073-4.097-1.469-1.926-3.027-4.768-3.463-6.316l-.793-2.815zm38.151-.261c-4.561 1.284-2.076 2.65 4.823 2.65 3.841 0 6.984-.08 6.985-.179 0-.098-.706-.885-1.57-1.75-1.594-1.593-6.033-1.906-10.238-.721m-27.634 5.373c-2.207 3.15-1.946 5.161 1.146 8.836 2.46 2.923 7.674 5.941 10.265 5.941.568 0 1.032-1.503 1.032-3.339 0-2.577-.562-3.596-2.459-4.461-1.353-.616-3.663-2.938-5.133-5.16-1.471-2.222-2.813-4.04-2.984-4.04-.171 0-1.011 1-1.867 2.223m28.743.505c1.74 1.74 14.7 3.593 14.7 2.101 0-2.034-4.893-3.829-10.437-3.829-5.678 0-5.901.091-4.263 1.728m23.433 1.022c-2.58 2.862-3.018 6.633-1.259 10.842 2.167 5.186 3.649 2.904 2.982-4.592-.348-3.901-.215-4.919.457-3.5.52 1.1.978 3.237 1.017 4.75.128 5.023 5.07 2.635 5.07-2.45 0-2.931-3.041-6.8-5.345-6.8-.74 0-2.055.788-2.922 1.75M89 42.322c0 3.886 7.512 7.834 10.91 5.734 1.035-.64.263-1.429-3.009-3.075-2.42-1.218-5.188-2.906-6.151-3.752C89.137 39.81 89 39.896 89 42.322m1 6.454C90 49.642 93.745 54 94.49 54c2.391 0 10.51-2.381 10.51-3.083 0-.504-2.505-.917-5.566-.917s-6.436-.466-7.5-1.035c-1.064-.57-1.934-.654-1.934-.189m44.536 8.153c-1.374 2.711-2.967 5.219-3.539 5.573-.573.354-.047-1.404 1.169-3.907 2.927-6.025 1.492-7.079-2.853-2.095-5.9 6.766-5.993 7.405-1.07 7.325 6.271-.102 7.622-.663 9.268-3.846 1.687-3.262 1.986-7.979.506-7.979-.541 0-2.107 2.218-3.481 4.929M101.5 54c-1.1.473-3.293.891-4.872.93-2.437.059-2.684.297-1.628 1.57.685.825 2.584 1.5 4.221 1.5 3.027 0 9.367-2.524 10.354-4.122.688-1.113-5.416-1.021-8.075.122m5.803 2.807c-5.712 2.96-6.276 3.749-3.341 4.681 3.049.968 11.737-4.548 10.448-6.633-.748-1.211-1.286-1.064-7.107 1.952m12.909 2.693c-3.972 4.365-4.02 4.5-1.606 4.5 2.403 0 6.517-3.497 8.527-7.25 1.956-3.652-2.823-1.753-6.921 2.75m18.981.376c-.652 1.869-.708 3.124-.141 3.124.521 0 .948.708.948 1.573 0 .96.682 1.442 1.75 1.237 2.463-.475 2.269-3.4-.196-2.971-1.647.287-1.751.103-.671-1.198.857-1.032.967-2.086.337-3.212-.794-1.419-1.106-1.196-2.027 1.447m4.032.298c.215.646 3.177 2.868 6.583 4.939 5.202 3.163 6.192 3.48 6.192 1.981 0-2.273-2.576-4.601-7.254-6.556-4.406-1.841-6.05-1.949-5.521-.364m2.775 6.72c0 2.077 9.522 8.689 10.42 7.236.882-1.427-2.446-5.102-6.486-7.164-3.865-1.971-3.934-1.973-3.934-.072m1 12.055c0 2.27 5.715 10.957 7.25 11.02.412.017.75-1.228.75-2.766 0-1.946-1.218-3.986-4-6.703-3.762-3.674-4-3.766-4-1.551m-6.588 3.42c-.289.753-.376 3.791-.193 6.75l.332 5.381 1.589-3.5c.874-1.925 1.864-4.963 2.199-6.75.525-2.79.327-3.25-1.395-3.25-1.104 0-2.243.616-2.532 1.369M146 85.476c0 1.427 1.321 4.909 2.937 7.736 2.856 5.002 2.954 5.069 3.604 2.481.484-1.929-.052-3.889-1.948-7.125-3.255-5.554-4.593-6.454-4.593-3.092m-2 6.397c0 4.198 3.97 12.785 5.092 11.013 1.338-2.113 1.106-3.67-1.336-8.994-2.547-5.553-3.756-6.202-3.756-2.019m-2.298 2.758c-1.683 1.683.634 13.686 2.798 14.495 1.794.671 1.645-5.673-.248-10.49-1.016-2.588-2.164-4.391-2.55-4.005m-30.452 36.514c-2.444 2.453-.803 15.933 1.748 14.356 1.135-.701 1.224-6.147.194-11.806-.554-3.047-.941-3.555-1.942-2.55m-5.141 6.591c-1.089 2.63-1.038 3.997.327 8.693 2.951 10.15 5.351 5.563 2.663-5.089l-1.697-6.724zm-4.103 6.364c-1.002 2.188-.839 3.417 1.025 7.75 1.218 2.833 2.562 5.15 2.985 5.15 1.895 0 1.724-3.446-.456-9.231-2.314-6.141-2.387-6.216-3.554-3.669m9.87 5.9c-6.203 8.276-9.937 26.048-7.922 37.711 1.246 7.209 4.875 14.592 7.993 16.261 1.742.932 1.932.463 2.526-6.232.352-3.982.503-17.14.334-29.24l-.307-22zm-13.451 1.442C97.801 153.928 102.4 164 104.159 164c1.526 0 .889-4.417-1.403-9.733-2.512-5.827-3.427-6.424-4.331-2.825m-1.714 4.18c-1.666 1.667-.469 6.366 2.789 10.949l3.5 4.923v-3.343c0-1.838-.897-4.602-1.993-6.142-1.097-1.54-2.352-3.767-2.789-4.949-.437-1.182-1.115-1.829-1.507-1.438M94 165.418c0 2.628.925 4.382 4 7.582 3.59 3.737 4 3.932 4 1.905C102 173.04 95.442 162 94.334 162c-.184 0-.334 1.538-.334 3.418m-2 13.94c0 2.318 3.34 6.013 8.25 9.128 2.602 1.65 2.75 1.651 2.75.014 0-.952-1.393-2.916-3.095-4.365a243.91 243.91 0 0 1-5.5-4.84L92 177.091zm0 6.208c0 3.055 2.135 5.469 7.036 7.952 3.984 2.019 4.964 2.218 4.964 1.005 0-.831-1.912-2.833-4.25-4.45-2.338-1.616-5.037-3.644-6-4.506-1.588-1.422-1.75-1.422-1.75-.001m2 9.504c0 1.044 1.238 2.519 2.785 3.319 3.748 1.938 10.215 3.106 10.215 1.845 0-1.546-2.066-2.892-7.75-5.049-5.096-1.934-5.25-1.938-5.25-.115m59.685.18c-1.877 1.383-6.161 11.75-4.855 11.75 1.339 0 4.691-4.195 6.992-8.75 2.232-4.42 1.392-5.599-2.137-3m9.769 3.5c-1.895 2.063-3.447 4.118-3.449 4.567-.009 1.473 4.432-.479 7.495-3.296 1.65-1.517 3.9-3.253 5-3.859 1.746-.961 1.517-1.105-1.801-1.132-3.133-.025-4.406.629-7.245 3.72m-16.741-.985c-.879.97-2.062 3.783-2.631 6.25-1.306 5.669-1.307 5.985-.026 5.985.581 0 1.898-1.912 2.927-4.25 3.742-8.504 3.615-12.278-.27-7.985m25.639.282c-1.181.447-2.445 1.294-2.809 1.883-.856 1.385-.439 1.35 3.469-.293 3.498-1.471 2.891-2.933-.66-1.59m-31.756 2.203c-1.532 2.378-3.768 12.9-2.921 13.75 1.132 1.138 4.136-4.254 4.786-8.592.385-2.565.937-5.281 1.226-6.036.859-2.236-1.519-1.561-3.091.878m-44.581.669c.074 2.783 4.786 5.081 10.419 5.081 4.377 0 6.133-1.461 3.139-2.61-2.81-1.079-13.573-3.04-13.558-2.471m38.607 3.331c-1.11 1.754-3.622 10.957-3.622 13.268 0 1.08 2.687-.787 3.879-2.696 1.569-2.512 3.158-12.822 1.977-12.822-.446 0-1.451 1.012-2.234 2.25m-6.633 5c-1.09 1.787-1.983 3.728-1.985 4.311-.002.584-.922 2.047-2.043 3.25L121.922 219h2.384c2.92 0 5.316-2.508 6.209-6.5.369-1.65.884-3.787 1.145-4.75.792-2.921-1.562-1.959-3.671 1.5M100 207.965c0 1.463 3.513 3.035 6.785 3.035 3.872 0 9.356-1.963 8.655-3.097-.753-1.219-15.44-1.16-15.44.062m13.141 3.057c-2.398 1.088-5.323 1.996-6.5 2.018-1.927.036-1.865.19.617 1.536 2.166 1.175 3.582 1.275 6.592.465 3.922-1.057 7.685-4.173 6.486-5.372-1.049-1.049-2.506-.775-7.195 1.353m8.463.46c-.895 1.365-3.309 3.349-5.365 4.41l-3.739 1.928 2.837.72c3.352.851 6.687-1.284 9.823-6.29 2.02-3.223 2.02-3.25.053-3.25-1.091 0-2.715 1.117-3.609 2.482m62.923 5.474c-.567.918 4.164 4.721 4.888 3.929.193-.212-.031-1.397-.499-2.635-.869-2.295-3.323-3.019-4.389-1.294m-3.598 2.227c-1.332 5.927-.858 8.153 2.534 11.908 1.945 2.153 3.544 4.476 3.552 5.162.021 1.665 1.949-1.297 1.97-3.025.008-.7-1.897-3.354-4.235-5.897-4.204-4.575-4.215-4.607-1.05-2.978 1.76.906 3.611 2.38 4.112 3.275 1.327 2.371 2.394.043 1.299-2.835-.496-1.306-1.512-2.864-2.257-3.462-1.393-1.117-5.798-2.715-5.925-2.148m-1.268 11.258c-.374.975.215 3.752 1.334 6.281 1.103 2.493 2.005 5.246 2.005 6.119 0 1.416.18 1.407 1.671-.084 1.435-1.434 1.504-2.23.489-5.617-.65-2.17-2.002-4.959-3.005-6.197-1.655-2.044-1.884-2.09-2.494-.502m-2.087 5.59c-.375 1.392-.198 4.683.391 7.315.59 2.631.805 5.317.478 5.969-.328.652.376.077 1.563-1.278 2.323-2.65 2.251-5.07-.333-11.181l-1.419-3.356zm-7.677 6.017c-4.335 2.201-6.658 6.891-5.307 10.714.5 1.416 1.585 2.797 2.41 3.069 1.298.428 1.311.265.099-1.203-1.884-2.281-1.625-7.389.492-9.729 2.508-2.77 4.563-2.456 3.928.601l-1.09 5.25c-.425 2.05-.28 2.465.569 1.632.626-.616 1.483-3.653 1.903-6.75.42-3.098.727-5.583.682-5.523-.046.06-1.705.932-3.686 1.939"/><path fill="#1976D2" fill-opacity=".75" fill-rule="evenodd" d="M115.459 3.367c-6.334 2.949-10.007 7.27-11.995 14.11-.855 2.939-2.273 5.619-3.152 5.957-.879.337-1.338.874-1.019 1.192.319.319.159 1.684-.354 3.034-.612 1.61-.59 2.242.064 1.838.548-.339.997-1.264.997-2.057 0-2.89 1.796-1.344 2.442 2.103.72 3.834-.014 7.456-1.509 7.456-.513 0-.933.52-.933 1.155 0 .64.956.306 2.146-.75 1.813-1.61 2.222-1.672 2.633-.405.267.825 2.676 3.639 5.353 6.253 5.266 5.142 6.649 9.747 2.927 9.747-1.068 0-2.169.369-2.447.819-.279.451.82.624 2.441.387 1.63-.24 2.947.026 2.947.594 0 1.551-8.103 7.19-10.447 7.27-1.998.069-2 .091-.088.839 2.175.85 2.172.852 8.535-4.735 4.021-3.531 5.059-3.951 9.75-3.948 2.888.003 5.25.215 5.25.471 0 1.268-7.421 9.302-9.079 9.828-3.639 1.155-4.047-.617-.955-4.14 4.401-5.012 3.728-5.469-.812-.551-2.116 2.291-4.478 4.173-5.25 4.181-1.141.013-1.157.173-.081.854 1.774 1.125-4.338 1.908-24.918 3.194l-16.648 1.041-3.051-3.052c-7.368-7.368-20.067.627-16.123 10.149 2.553 6.163 11.177 7.693 16.027 2.843 1.626-1.626 3.504-2.756 4.173-2.511C73.302 76.905 111.716 81 114.19 81c.446 0 .81 9.941.81 22.091v22.09l-4.641 5.432c-2.552 2.988-3.929 5.159-3.06 4.826.87-.334 2.293-1.694 3.164-3.023.871-1.329 1.969-2.416 2.44-2.416 1.277 0 1.977 12.198.828 14.43-.982 1.907-1.012 1.907-2.497 0-1.37-1.759-1.447-1.768-.869-.098.349 1.007.635 2.745.635 3.861 0 1.926.1 1.909 1.967-.332 1.964-2.358 1.966-2.326 2 27.889.018 16.637-.339 30.25-.793 30.25s-1.882-1.125-3.174-2.5c-1.587-1.689-3.346-2.467-5.424-2.398l-3.076.103 3.322.786c1.827.432 4.207 1.736 5.289 2.897 1.082 1.162 2.673 2.112 3.535 2.112.883 0 1.348.573 1.065 1.312-.368.957.313 1.191 2.52.867 3.919-.575 3.382 1.463-1.206 4.571-3.755 2.544-7.766 2.891-10.481.906-1.674-1.224-1.424-1.449 2.809-2.515 2.556-.643 4.647-1.313 4.647-1.488 0-.175-2.474-.112-5.498.138-3.543.294-6.033.013-7-.79-2.359-1.957-1.778-2.991 1.748-3.116 3.215-.114 3.207-.125-.75-1.042-2.2-.51-5.013-.913-6.252-.896-4.163.057-18.691-5.928-25.277-10.412C65.699 190.945 60 185.36 60 183.783c0-.164 3.712-.137 8.25.059l8.25.357-4-2.942c-10.942-8.047-21.492-24.002-28.474-43.059l-2.309-6.301-2.777 2.661C32.853 140.389 28 153.274 28 163.602c0 11.133 7.511 31.476 14.894 40.339l2.866 3.44-.13-7.633c-.189-11.122.952-11.305 7.782-1.249 9.362 13.782 17.39 19.527 42.489 30.407 11.791 5.111 22.826 11.943 27.31 16.906l3.451 3.819 3.919-3.42c7.057-6.16 15.555-11.419 27.836-17.227 17.37-8.215 18.99-8.72 21.128-6.582.955.955 2.861 2.473 4.236 3.374 1.375.901 3.335 3.008 4.356 4.681 1.49 2.443 1.848 2.648 1.817 1.043-.023-1.19-2.048-3.549-4.997-5.823-2.726-2.103-4.957-4.465-4.957-5.25 0-2.424 4.003-1.578 7.077 1.496 1.608 1.608 2.923 2.382 2.923 1.721 0-1.117-1.407-2.43-4.936-4.606-1.19-.734-1.211-1.155-.127-2.462 1.762-2.123 2.546-1.988 3.912.674 1.077 2.096 1.12 2.045.642-.75-.443-2.588.38-4.03 5.989-10.5 3.577-4.125 7.519-9.412 8.76-11.75 1.241-2.338 2.595-4.25 3.008-4.25.827 0 1.201 5.026.893 12l-.199 4.5 4.685-5c5.958-6.358 10.812-16.651 12.966-27.498 2.011-10.123.956-19.938-3.095-28.786-2.427-5.303-8.021-13.216-9.341-13.216-.371 0-1.74 3.037-3.042 6.75-6.87 19.584-15.649 33.696-25.475 40.947l-6.14 4.532 7.75-.384c4.262-.211 7.75-.072 7.75.309 0 1.464-5.428 7.044-9.733 10.006-4.463 3.071-4.533 3.084-8.009 1.426-1.928-.919-3.75-1.427-4.048-1.129-.299.299.069.543.818.543.748 0-.164 1.125-2.028 2.5s-2.964 2.486-2.444 2.468c.519-.017 1.818-.692 2.885-1.5 2.115-1.6 4.559-1.95 4.559-.653 0 1.124-6.94 4.34-7.98 3.697-.464-.286-2.204.26-3.867 1.215-1.663.954-3.327 1.432-3.698 1.062-1.029-1.03 3.435-6.751 6.934-8.884 1.711-1.044 2.436-1.889 1.611-1.879-1.989.025-5.163 2.724-7.908 6.726-2.284 3.329-5.825 5.849-6.82 4.853-.306-.306-.131-1.13.39-1.831 1.318-1.773 3.697-7.454 2.713-6.476-.442.438-1.946 2.913-3.343 5.5-1.72 3.184-3.184 4.702-4.536 4.702-1.098 0-2.584.787-3.303 1.75-1.663 2.227-2.922 2.227-3.504 0-.368-1.411-.479-1.344-.573.345-.064 1.152-1.043 2.934-2.177 3.96-1.764 1.597-2.194 1.655-2.985.405-.789-1.248-.926-1.228-.939.135-.017 1.796-3.072 4.905-4.819 4.905-.817 0-.867-.736-.171-2.565 1.713-4.506 1.001-5.089-.955-.782-1.799 3.962-4.95 6.157-7.012 4.883-.538-.333.116-2.177 1.491-4.204 1.348-1.986 2.437-4.111 2.421-4.722-.017-.61-.527-.21-1.134.89-3.42 6.197-8.839 9.054-12.623 6.653-.897-.57-.101-1.351 2.637-2.585 2.157-.973 4.912-3.107 6.121-4.743 1.431-1.935 2.748-2.763 3.769-2.371.909.349 2.559-.325 3.915-1.6 2.224-2.089 2.348-2.103 2.408-.278.06 1.819.109 1.813.889-.111 1.291-3.185 4.02-5.129 4.992-3.556 1.756 2.841 2.107-5.693 2.096-50.858-.007-30.907.336-47.01 1.006-47.233.68-.227.655-1.377-.075-3.47-.912-2.617-.753-3.762.969-6.975 1.133-2.114 2.06-4.413 2.06-5.108 0-.696.436-1.265.969-1.265.532 0 .679-.754.325-1.677-.479-1.247-.989-.678-1.995 2.226-2.31 6.673-3.299 6.419-3.299-.849 0-6.48.082-6.7 2.5-6.7 1.708 0 2.505.554 2.515 1.75.011 1.217.252 1.377.793.527.427-.673.679-3.934.559-7.247l-.218-6.023 4.411 3.034c2.425 1.669 4.834 3.827 5.352 4.795.842 1.573 1.825 1.671 9.265.916 4.578-.464 10.549-1.226 13.27-1.693 4.671-.802 5.097-.688 7.651 2.046 2.67 2.858 4.002 3.296 8.902 2.929 7.236-.543 10.393-11.719 4.694-16.621-4.157-3.576-9.682-3.317-13.359.627l-2.835 3.039-11.5-.676c-6.325-.372-12.491-1.045-13.702-1.497-1.719-.64-2.08-.501-1.643.637.782 2.039.317 1.898-6.559-1.989-5.525-3.123-6.096-3.263-6.096-1.5 0 1.315-.686 1.946-2.117 1.946-1.597 0-1.993-.473-1.613-1.925.369-1.409.101-1.771-.999-1.349-1.188.456-1.347.075-.762-1.825.711-2.309.655-2.296-1.458.349-1.363 1.707-3.164 2.75-4.746 2.75-2.253 0-2.39-.19-1.177-1.634.754-.898 2.272-3.463 3.372-5.699 2.398-4.873 4.5-5.924 4.5-2.25 0 1.475.512 2.476 1.194 2.333.657-.137 1.504 1.1 1.882 2.75.378 1.65.741 2.212.806 1.25.065-.962.905-1.768 1.868-1.79 1.281-.029 1.045-.423-.881-1.47-3.601-1.956-4.483-4.476-1.588-4.535 2.042-.042 2.004-.141-.481-1.25-2.184-.975-7.8-7.592-7.8-9.192 0-.219 1.912-.57 4.25-.781 4.063-.366 4.019-.39-1-.557-4.686-.156-5.68-.605-9.25-4.175-2.2-2.2-4.6-4-5.333-4-2.294 0-2.708-1.244-.901-2.706 1.541-1.248 1.472-1.277-.623-.257-1.688.822-2.665.841-3.437.069-1.774-1.774 2.941-5.944 7.169-6.34l3.625-.34-2.815-.838c-2.355-.701-3.293-.379-5.74 1.964-3.156 3.024-4.521 2.837-3.469-.477.382-1.203 1.576-2.124 2.841-2.191 1.777-.094 1.847-.203.376-.584-2.846-.738-1.561-3.62 2.498-5.604 3.067-1.499 4.366-1.623 7.677-.731 6.301 1.696 11.073 8.847 8.367 12.537-.719.979-3.212 2.264-8.235 4.243-1.963.774-1.373.88 2.745.494 3.393-.319 5.776-.052 6.75.757 2.442 2.026 1.749 2.995-2.245 3.138-3.733.133-3.729.136.75.776 5.2.742 7 1.659 7 3.566 0 .746-.562 1.612-1.25 1.923-.687.311-.399.461.642.333 1.184-.145 3.056-2.459 5-6.18 9.03-17.283-2.444-35.483-22.392-35.52-4.742-.009-7.864.623-11.541 2.335m13.977 21.529c.375.607.066 1.104-.686 1.104s-2.241.669-3.309 1.486c-1.774 1.358-1.658 1.392 1.34.392 1.804-.602 4.167-.863 5.25-.58 2.635.689 2.481.268-.654-1.787-1.443-.945-2.316-1.222-1.941-.615m-35.871 4.356c-.974 2.185-.153 5.628 1.966 8.248.889 1.1 1.258 1.325.819.5-.439-.825-1.069-3.525-1.401-6-.44-3.288-.813-4.028-1.384-2.748M99.158 33c0 1.375.227 1.938.504 1.25.278-.687.278-1.812 0-2.5-.277-.687-.504-.125-.504 1.25m-10.47 2.37c-.378.986-.681 2.769-.673 3.962.013 1.766.195 1.89.985.668.609-.942.975-1.048.985-.285.008.668 1.028 1.746 2.265 2.395 2.205 1.157 2.214 1.14.442-.857-.994-1.121-2.147-3.307-2.561-4.857-.629-2.351-.869-2.521-1.443-1.026m67.812 2.354c2.661.654 4.544 2.263 5.548 4.741.69 1.701.836 1.748.889.285.089-2.481-3.524-5.771-6.187-5.634-2.039.105-2.062.162-.25.608M98.5 42c.34.55.816 1 1.059 1s.441-.45.441-1-.477-1-1.059-1-.781.45-.441 1m56.658 2c0 1.375.227 1.938.504 1.25.278-.687.278-1.812 0-2.5-.277-.687-.504-.125-.504 1.25M88 44.462c0 2.534 3.679 10.035 5.742 11.707 1.179.956 1.43.978.891.081-.48-.799-.154-1.25.904-1.25 2.522 0 12.683-3.113 12.091-3.705-.286-.286-2.649.206-5.252 1.093-6.386 2.175-8.97 2.03-10.819-.611-2.156-3.077-1.972-3.557 1.193-3.117 2.465.343 2.528.284.607-.567-1.179-.522-2.866-1.982-3.75-3.244C88.162 42.786 88 42.747 88 44.462m61.356-.755c-.629.214-.914 1.267-.634 2.339.45 1.719.111 1.886-2.856 1.406-3.335-.539-3.33-.53.534.936 3.913 1.484 5.556 3.055 5.585 5.337.011.903-.661.969-2.55.25-1.411-.536-3.098-.939-3.75-.896-.652.043.165.551 1.815 1.127 1.65.577 4.111 2.004 5.47 3.171 1.684 1.448 2.036 1.559 1.107.349-.749-.976-1.089-2.048-.755-2.382.334-.334.146-1.469-.417-2.522-.564-1.053-1.336-3.623-1.715-5.71-.397-2.183-1.176-3.629-1.834-3.405M100.592 47.5c.901 1.375 2.057 2.5 2.57 2.5 1.1 0-2.303-4.923-3.435-4.969-.425-.017-.036 1.094.865 2.469m55.408 2c0 1.375.388 2.5.861 2.5.474 0 .647-1.125.384-2.5s-.651-2.5-.862-2.5c-.21 0-.383 1.125-.383 2.5m-24.5 4.265c-.55.404-2.68 2.827-4.734 5.384-3.195 3.977-3.491 4.743-2.05 5.296 2.468.947 6.364-2.407 8.42-7.248 1.728-4.069 1.08-5.427-1.636-3.432m-27 3.316c-2.2 1.055-4.787 1.736-5.75 1.513-2.682-.623-2.092.178 1.5 2.035 2.991 1.546 3.14 1.548 1.878.026-1.194-1.439-1.128-1.658.5-1.677 1.029-.012 2.997-.902 4.372-1.978 3.065-2.397 2.637-2.383-2.5.081m45 3.584c1.65.872 3.787 2.274 4.75 3.115.963.842 1.75 1.047 1.75.457 0-1.298-6.179-5.253-8.118-5.197-.76.022-.032.753 1.618 1.625m-4.5 5.207c0 2.149 10.586 10.876 11.764 9.697 1.63-1.63-1.647-6.059-6.514-8.802-5.016-2.828-5.25-2.868-5.25-.895m5 13.179c1.375 1.194 3.285 3.358 4.243 4.81 1.022 1.546 1.733 2.018 1.719 1.139-.035-2.043-1.879-4.179-5.462-6.323l-3-1.796zm.428 8.431c1.414 2.19 2.601 5.115 2.635 6.5l.064 2.518.924-2.305c.968-2.411.959-2.431-3.599-7.695l-2.597-3zm-4.424 1.818c-.002.439.746 2.239 1.663 4 .917 1.76 1.939 4.505 2.271 6.101l.603 2.901 1.237-2.715c.687-1.507.786-2.435.223-2.087-.559.345-1.321-.189-1.694-1.187-.945-2.522-4.299-7.988-4.303-7.013m-1.399 9.2c.332 1.1.982 3.263 1.446 4.807.463 1.544.57 3.569.236 4.5-.741 2.07-.208 1.535 2.019-2.027 1.094-1.75 1.254-2.551.447-2.246-.722.273-1.994-1.117-3.002-3.28-.963-2.065-1.478-2.854-1.146-1.754M142 109.559c0 1.957.375 3.327.833 3.044.788-.487.375-6.603-.446-6.603-.213 0-.387 1.602-.387 3.559M108.61 138.5c.823 3.677 1.395 4.475 1.375 1.917-.009-1.054-.472-2.592-1.031-3.417-.741-1.095-.834-.691-.344 1.5m-5.139 1.25c-.967 1.512-1.367 2.386-.889 1.941.477-.444 1.375.681 1.995 2.5 1.103 3.24 1.124 3.199 1.025-1.935-.056-2.884-.163-5.246-.237-5.25-.074-.003-.926 1.232-1.894 2.744m-3.833 6.75c-.316.825-.139 1.5.393 1.5.533 0 .969-.675.969-1.5s-.177-1.5-.393-1.5c-.216 0-.652.675-.969 1.5m1.441 3.559c-.043.857.621 2.432 1.476 3.5 1.53 1.91 1.541 1.909.635-.059a61.867 61.867 0 0 1-1.476-3.5c-.48-1.296-.567-1.288-.635.059m-4.301 2.681c-.261 1 .148 2.402.911 3.114 1.168 1.091 1.28.85.708-1.529-.87-3.622-1.042-3.791-1.619-1.585m7.973 5.737c.364 1.902.817 2.355 1.586 1.586.77-.77.624-1.53-.509-2.664-1.449-1.448-1.542-1.354-1.077 1.078m-3.677 3.023c2.754 4.904 3.926 6.311 3.926 4.711 0-.653-.666-1.981-1.481-2.95a253.056 253.056 0 0 1-3.086-3.761c-.883-1.1-.594-.2.641 2M94 160.441c0 .857.45 1.559 1 1.559s1-.423 1-.941-.45-1.219-1-1.559c-.55-.34-1 .084-1 .941m2.62 3.809c.406.688 1.783 2.642 3.059 4.344 1.277 1.702 2.321 3.615 2.321 4.25 0 2.435 1.574 1.019 1.772-1.594.134-1.765-.087-2.287-.617-1.458-.596.933-1.603.168-3.626-2.75-2.586-3.731-4.612-5.676-2.909-2.792m-4.111 2.735c-.421.681-.37 1.526.113 1.877 3.551 2.581 9.378 10.468 9.378 12.694v2.6l-4.244-3.633c-2.335-1.998-4.794-4.621-5.465-5.828-1.065-1.916-1.225-1.394-1.256 4.114-.019 3.47.364 6.062.852 5.761.487-.301 1.467.152 2.177 1.007.71.855 2.673 2.252 4.363 3.103 3.473 1.75 2.769.951-2.677-3.036-2.902-2.125-3.75-3.43-3.75-5.772v-3.027l5.5 4.699 5.5 4.699v-4.152c0-3.525-.551-4.636-3.646-7.353-2.005-1.76-4.193-4.504-4.862-6.096-.83-1.973-1.461-2.501-1.983-1.657m10.263 21.78c-.321 1.228-.176 2.485.322 2.793.498.308.906 1.419.906 2.47 0 1.391-.475 1.739-1.75 1.281-2.146-.77-1.617-.247 2.123 2.097 1.732 1.086 2.55 1.278 2.059.483-.448-.724-1.324-3.577-1.946-6.338-.885-3.933-1.257-4.536-1.714-2.786m-10.747 1.396c.026 1.434 6.859 5.289 7.766 4.382.298-.299.052-.543-.548-.543-.599 0-2.474-1.165-4.166-2.589-1.927-1.621-3.068-2.088-3.052-1.25M156 193.393c0 .971 2.817 1.336 4.091.53 1.025-.65.66-.897-1.341-.908-1.512-.008-2.75.162-2.75.378m-5.344 2.813c-.78 2.985-.473 3.022 1.641.196 1.43-1.912 1.505-2.402.366-2.402-.786 0-1.689.993-2.007 2.206m-4.902.044c-.895.688-1.876 3.05-2.18 5.25l-.551 4 1.039-3.5c.572-1.925 1.966-4.287 3.099-5.25 2.334-1.982 1.096-2.422-1.407-.5m-51.739 1.378c.033 1.888 1.638 2.881 4.985 3.085 3.405.208 3.424.189.686-.68-1.548-.492-3.46-1.431-4.25-2.086-.79-.656-1.429-.799-1.421-.319M137.232 208c0 1.925.206 2.713.457 1.75.252-.963.252-2.537 0-3.5-.251-.963-.457-.175-.457 1.75m41.256 21.117c-.401 1.861-1.278 4.508-1.95 5.883-.693 1.421-.917 3.579-.518 5 .616 2.191.751 2.006 1.092-1.5.213-2.2.884-3.91 1.49-3.799.667.121.909-.809.613-2.357-.269-1.406-.001-2.858.595-3.227.638-.394.739-1.229.246-2.027-.593-.959-1.052-.365-1.568 2.027m6.932 8.425c.693 2.983 1.279 3.961 1.808 3.016.816-1.459-.472-5.972-1.968-6.898-.475-.293-.403 1.453.16 3.882m-4.837-.042c1.394 3.864 1.598 8.293.478 10.386-1.696 3.169-.632 2.551 2.358-1.369 1.668-2.186 2.084-3.264 1.119-2.893-1.038.398-1.55-.013-1.573-1.267-.02-1.021-.726-2.982-1.57-4.357-.983-1.603-1.274-1.782-.812-.5m-10.083 4.568c-1.777.703-1.798.799-.189.862 1.564.06 1.738.72 1.276 4.82l-.536 4.75 1.011-4c1.404-5.556.95-7.426-1.562-6.432m6.658 2.932c0 1.375.227 1.938.504 1.25.278-.687.278-1.812 0-2.5-.277-.687-.504-.125-.504 1.25m-.963 6.06c-1.191 1.907-1.133 1.977.787.949 1.141-.61 1.81-1.537 1.487-2.059-.782-1.266-.795-1.259-2.274 1.11"/></svg>