<svg xmlns="http://www.w3.org/2000/svg" width="256" height="256"><path fill="#1976D2" fill-opacity=".016" fill-rule="evenodd" d="M0 128.004v128.004l128.25-.254 128.25-.254.254-127.75L257.008 0H0zm.485.496c0 70.4.119 99.053.265 63.672.146-35.38.146-92.98 0-128C.604 29.153.485 58.1.485 128.5"/><path fill="#1976D2" fill-opacity=".151" fill-rule="evenodd" d="M0 128.004v128.004l128.25-.254 128.25-.254.254-127.75L257.008 0h-40.893l.424 2.202c.233 1.212-.13 2.555-.807 2.985-.837.531-.606.787.718.798 1.473.011 1.668.297.797 1.168-.794.794-.845 1.73-.165 3 .544 1.016.732 1.847.418 1.847s-.059.955.565 2.122l1.136 2.122 2.271-2.372c1.249-1.305 2.034-2.779 1.745-3.277-.289-.497.009-.573.663-.169.724.447 1.132 2.954 1.043 6.405-.081 3.118-.082 5.894-.003 6.169.079.275.278 4.444.442 9.265.224 6.596.693 9.071 1.897 10 1.637 1.264 3.014 13.741 1.516 13.737-.399-.001-.298 1.123.225 2.498.523 1.375.622 2.5.22 2.5s-.707 7.088-.679 15.75c.029 8.662-.328 16.272-.793 16.911-.485.666-.397 1.438.206 1.811.692.427.724 1.26.096 2.435-.643 1.201-.578 2.165.197 2.94.634.634.721 1.153.192 1.153-.528 0-.924 2.813-.879 6.25.045 3.438-.119 6.635-.363 7.105-.244.47-.594 3.62-.777 7-.335 6.186-.755 10.519-1.999 20.645-.372 3.025-.796 6.85-.942 8.5-.147 1.65-.368 3.225-.491 3.5-.124.275-.172.838-.106 1.25.065.412-.29.75-.788.75-.499 0-.659.946-.357 2.102.322 1.232-.027 2.468-.844 2.985-.766.485-.893.889-.282.898.643.009.911 1.064.636 2.503-.262 1.369-.843 2.262-1.292 1.984-.449-.278-1.142.022-1.54.666-.472.764-.289.902.527.398.867-.536 1.126-.201.845 1.096-.223 1.027-.929 1.76-1.568 1.627-.839-.173-.893.468-.194 2.308.717 1.884.665 2.36-.198 1.826-.79-.488-.954-.167-.508.995.443 1.156.28 1.482-.5 1-.762-.471-.951-.174-.552.865.369.963-.042 1.83-1.052 2.218-1.312.504-1.382.808-.335 1.455 1.036.64.9 1.117-.629 2.196-1.073.758-1.834 2.164-1.69 3.124.143.96-.219 2.042-.805 2.405-.628.388-.772.184-.351-.496.392-.635.184-1.155-.463-1.155-.656 0-.959.827-.685 1.873.379 1.453.059 1.761-1.426 1.372-1.252-.327-1.815-.038-1.624.832.349 1.585-2.352 1.934-3.533.456-.506-.632-.667-.451-.417.467.225.825.897 1.5 1.493 1.5.596 0 1.346.338 1.667.75.321.412.289.531-.07.263-.36-.267-2.16.444-4 1.582-2.668 1.649-3.224 1.749-2.742.492.332-.866.976-1.346 1.431-1.065.454.281 1.084.093 1.4-.418.476-.771-1.524-.808-3.436-.062-.275.107-.876.129-1.336.048-.46-.081-1.075.766-1.367 1.881-.292 1.116-1.115 2.029-1.83 2.029-.715 0-1.517.563-1.782 1.25-.265.688-.435.287-.379-.89.064-1.317.601-1.949 1.399-1.643.712.273 1.295-.028 1.295-.669s-.412-.912-.915-.601c-.503.311-1.142 0-1.421-.691-.386-.957-.525-.965-.585-.031-.056.867-.762.966-2.412.338-1.284-.488-2.91-.531-3.614-.096-.788.487-.879.933-.236 1.162.637.226.434 1.15-.521 2.371-1.217 1.555-1.434 1.618-.974.282.325-.945.091-2.027-.52-2.404-.648-.401-.831-.234-.44.398.369.597.213 1.368-.346 1.714-.573.354-1.016-.353-1.016-1.622 0-2.144-.064-2.162-1.362-.388-1.353 1.851-5.165 3.182-4.079 1.425.312-.505-.133-1.188-.99-1.517-.857-.329-1.249-1.113-.871-1.743.377-.63-.075-.527-1.006.227-1.792 1.454-2.334 2.643-.761 1.671.512-.317 1.183-.168 1.491.331.308.498-.946.76-2.786.582-2.912-.282-3.325-.041-3.182 1.86.091 1.201-.14 3.759-.513 5.684-.424 2.189-.727-.755-.809-7.857-.115-9.886.069-11.28 1.42-10.761.854.327 1.336.246 1.072-.181s1.85-2.079 4.698-3.671c2.848-1.592 7.918-5.625 11.267-8.962 7.608-7.583 9.913-13.445 9.854-25.068-.045-8.736-1.93-14.333-7.129-21.163-2.701-3.547-15.305-12.564-19.363-13.852-1.893-.601-1.951-1.839-1.951-41.552V33h-28.584L134 37.5c-2.429 2.475-4.813 4.5-5.299 4.5-.485 0-3.252-2.025-6.149-4.5l-5.268-4.5H89v68.828l-6.503 3.637c-7.972 4.458-16.064 12.372-18.886 18.471-3.129 6.765-3.023 22.512.201 29.656 2.799 6.202 9.504 12.847 18.188 18.025l6.5 3.876 14.75.326c8.112.179 14.741-.045 14.729-.497-.011-.452-2.919-2.726-6.462-5.053-6.993-4.594-13.622-12.162-16.878-19.269-1.542-3.364-2.058-6.519-2.048-12.5.013-7.067.398-8.748 3.307-14.411 3.564-6.938 11.178-15.218 17.891-19.456l4.211-2.658V74.757l5.571 4.76 5.572 4.759 4.428-4.346L138 75.584v39.341l5.75 3.91c7.424 5.048 14.204 12.364 17.296 18.665 2.053 4.183 2.454 6.47 2.454 14 0 8.354-.246 9.454-3.43 15.326-3.594 6.629-13.9 17.046-19.173 19.38L138 187.488l-.194 11.506-.193 11.506-.613-10c-.337-5.5-.714-8.2-.838-6-.124 2.2-.921 4.9-1.771 6-1.25 1.617-1.483 1.678-1.219.316.181-.927-.122-1.602-.672-1.5-.55.101-.854.621-.676 1.156.178.535-.609.127-1.75-.905-2.522-2.283-2.749-3.323-.324-1.488 1.483 1.122 1.561 1.112.514-.064-.68-.763-2.203-1.535-3.385-1.716-1.816-.277-1.954-.094-.891 1.187 1.053 1.269.923 1.514-.807 1.514-1.134 0-2.341-.45-2.681-1-.34-.55-1.379-.948-2.309-.884-1.525.105-1.519.161.059.573 2.016.527 2.149 1.214.64 3.311-.91 1.266-.991 1.227-.516-.25.37-1.149.038-1.75-.964-1.75-.939 0-1.251.482-.809 1.25.396.688.336.901-.133.474-1.432-1.302-1.567-4.893-.249-6.605.73-.948.266-.79-1.119.381l-2.366 2 .624-2.5c.343-1.375.366-1.941.052-1.258-.415.902-1.097.961-2.491.215-1.055-.565-1.919-.731-1.919-.37 0 .362-.761.04-1.692-.715-.964-.781-1.387-.864-.984-.191 1.039 1.732-1.166 2.695-2.891 1.264-1.236-1.026-1.371-.917-.821.664.637 1.832.611 1.831-.833-.021-.852-1.094-2.146-1.661-3.021-1.325-1.172.449-1.4.076-.971-1.588.492-1.912.362-2.013-1.073-.836-1.432 1.174-1.582 1.07-1.214-.839.349-1.813.175-1.975-1.04-.967-.803.667-1.46.877-1.46.467s-.675-.185-1.5.5c-1.229 1.02-1.5.951-1.5-.378 0-.892-.498-1.622-1.107-1.622s-.839.698-.511 1.552c.327.854.189 1.301-.308.994-.497-.307-1.093-.218-1.325.198-.232.416-.298.231-.148-.411.439-1.881-2.429-2.398-2.922-.528-.397 1.504-.46 1.51-.563.058-.139-1.959-5.508-3.025-7.239-1.436-.847.776-.984.741-.496-.127.38-.676-.182-1.658-1.287-2.25-2.85-1.525-3.796-1.287-1.535.387 1.912 1.415 1.911 1.431-.059 1.076-1.1-.198-2.364-.394-2.809-.436-.445-.043-.554-.49-.241-.996.312-.505-.784-1.215-2.435-1.578-1.652-.363-3.442-1.412-3.979-2.331-.536-.92-.989-1.16-1.006-.534-.041 1.532-6.997 11.654-8.709 12.673-.75.447-1.102 1.234-.783 1.75.319.517.084.939-.523.939-.606 0-1.03-.562-.94-1.25.089-.687.077-2.15-.027-3.25l-.189-2-.859 2c-.614 1.428-.913 1.571-1.048.5-.104-.825-.124-1.871-.046-2.324.079-.454-.318-.54-.881-.191-.564.348-1.025.13-1.025-.485s-.403-.869-.895-.565c-.493.305-1.162-.142-1.489-.993-.34-.885-.171-1.285.395-.935.544.336.989-.166.989-1.115s-.293-1.432-.651-1.074c-.358.358-1.292-.13-2.074-1.084-.783-.953-1.095-1.102-.695-.329.463.891.329 1.157-.364.728-.601-.371-.922-1.566-.712-2.654.255-1.323-.18-2.005-1.311-2.058-1.107-.052-1.246-.258-.401-.597 1.055-.424 1.055-.81 0-2.113-.977-1.207-.988-1.412-.042-.844 1.941 1.166 1.474-.08-.836-2.233-1.71-1.593-1.886-2.317-.977-4.016.883-1.651.833-1.967-.247-1.552-.746.286-1.396-.062-1.443-.773-.048-.711-.34-2.4-.65-3.753-1.524-6.655-1.628-9.926-.341-10.719 1.545-.952 1.713-5.476.244-6.556-.618-.454-.519-.74.258-.75.898-.011.983-.516.296-1.765-1.306-2.376-2.923-13.1-2.491-16.532.236-1.873-.018-2.555-.776-2.086-.793.49-.86.129-.227-1.218 1.143-2.432 1.349-17.369.27-19.583-.52-1.066-.365-1.821.428-2.088.989-.333.989-.724.001-1.922-.683-.828-.908-1.873-.5-2.322.407-.45-.061-.53-1.041-.177-1.272.457-2.008.002-2.572-1.591-.898-2.536-1.731-45.218-1.474-75.481L29.845 0H0zm.485.496c0 70.4.119 99.053.265 63.672.146-35.38.146-92.98 0-128C.604 29.153.485 58.1.485 128.5m92.328-89.817c.721.289 1.584.253 1.916-.079.332-.332-.258-.568-1.312-.525-1.165.048-1.402.285-.604.604m20 0c.721.289 1.584.253 1.916-.079.332-.332-.258-.568-1.312-.525-1.165.048-1.402.285-.604.604m5.187.876c0 .857.457 1.276 1.016.931.559-.346.758-1.047.441-1.559-.857-1.387-1.457-1.129-1.457.628m18.625-.761c-.271.439-.08 1.451.426 2.25.717 1.134.922.959.934-.798.015-2.313-.493-2.856-1.36-1.452m25.188-.115c.721.289 1.584.253 1.916-.079.332-.332-.258-.568-1.312-.525-1.165.048-1.402.285-.604.604m-39.146 4.984c-.932.932-.832 2.333.166 2.333.459 0 .834-.675.834-1.5 0-1.699-.073-1.76-1-.833M112 44.833c0 .459.675.834 1.5.834s1.5-.375 1.5-.834c0-.458-.675-.833-1.5-.833s-1.5.375-1.5.833m20.553.082a1.116 1.116 0 0 0 .362 1.532c.521.322 1.21.159 1.532-.362a1.116 1.116 0 0 0-.362-1.532 1.116 1.116 0 0 0-1.532.362m-4.956 3.929c-.346.56-.142 1.319.453 1.687 1.538.95 2.53-.351 1.246-1.635-.718-.718-1.277-.735-1.699-.052m-5 5c-.346.56-.142 1.319.453 1.687 1.538.95 2.53-.351 1.246-1.635-.718-.718-1.277-.735-1.699-.052m-29.784 4.839c.721.289 1.584.253 1.916-.079.332-.332-.258-.568-1.312-.525-1.165.048-1.402.285-.604.604m25.337.267c.22.66.726 1.166 1.125 1.125 1.196-.124.964-1.495-.325-1.925-.66-.22-1.02.14-.8.8M92 65c0 .55.675 1 1.5 1s1.5-.45 1.5-1-.675-1-1.5-1-1.5.45-1.5 1m20 .167c0 .458.675.833 1.5.833s1.5-.375 1.5-.833c0-.459-.675-.834-1.5-.834s-1.5.375-1.5.834m29 0c0 .458.675.833 1.5.833s1.5-.375 1.5-.833c0-.459-.675-.834-1.5-.834s-1.5.375-1.5.834M161 65c0 .55.675 1 1.5 1s1.5-.45 1.5-1-.675-1-1.5-1-1.5.45-1.5 1m-24.457 2.931c-.317.512-.193 1.167.274 1.456.467.289.85-.13.85-.931 0-1.686-.316-1.833-1.124-.525m-3.99 4.984a1.116 1.116 0 0 0 .362 1.532c.521.322 1.21.159 1.532-.362a1.116 1.116 0 0 0-.362-1.532 1.116 1.116 0 0 0-1.532.362M92 78c0 .55.675 1 1.5 1s1.5-.45 1.5-1-.675-1-1.5-1-1.5.45-1.5 1m20 0c0 .55.675 1 1.5 1s1.5-.45 1.5-1-.675-1-1.5-1-1.5.45-1.5 1m15.756-.336c.691.279.959.988.596 1.576-.394.637-.188.777.51.345 1.377-.85.55-2.62-1.171-2.506-.852.056-.834.223.065.585M141 78c0 .55.675 1 1.5 1s1.5-.45 1.5-1-.675-1-1.5-1-1.5.45-1.5 1m20 0c0 .55.675 1 1.5 1s1.5-.45 1.5-1-.675-1-1.5-1-1.5.45-1.5 1m-20 6.833c0 .459.675.834 1.5.834s1.5-.375 1.5-.834c0-.458-.675-.833-1.5-.833s-1.5.375-1.5.833m20-.44c0 .216.675.652 1.5.969.825.316 1.5.139 1.5-.393 0-.533-.675-.969-1.5-.969s-1.5.177-1.5.393m-69 6.44c0 .459.675.834 1.5.834s1.5-.375 1.5-.834c0-.458-.675-.833-1.5-.833s-1.5.375-1.5.833m20 0c0 .459.675.834 1.5.834s1.5-.375 1.5-.834c0-.458-.675-.833-1.5-.833s-1.5.375-1.5.833M141 91c0 .55.675 1 1.5 1s1.5-.45 1.5-1-.675-1-1.5-1-1.5.45-1.5 1m20-.167c0 .459.675.834 1.5.834s1.5-.375 1.5-.834c0-.458-.675-.833-1.5-.833s-1.5.375-1.5.833m-20 20c0 .459.675.834 1.5.834s1.5-.375 1.5-.834c0-.458-.675-.833-1.5-.833s-1.5.375-1.5.833m20 0c0 .459.675.834 1.5.834s1.5-.375 1.5-.834c0-.458-.675-.833-1.5-.833s-1.5.375-1.5.833m-63.187 3.85c.721.289 1.584.253 1.916-.079.332-.332-.258-.568-1.312-.525-1.165.048-1.402.285-.604.604M68 120.059c0 .582.45.781 1 .441s1-.816 1-1.059-.45-.441-1-.441-1 .477-1 1.059m83.813 1.624c.721.289 1.584.253 1.916-.079.332-.332-.258-.568-1.312-.525-1.165.048-1.402.285-.604.604m-29.928 2.658c-11.286 4.153-16.924 14.306-13.913 25.058 5.411 19.329 31.725 20.621 39.53 1.942 3.778-9.043-.048-19.647-8.977-24.879-5.265-3.086-11.766-3.914-16.64-2.121M91 125c0 .55.477 1 1.059 1s.781-.45.441-1-.816-1-1.059-1-.441.45-.441 1m65.75 1.662c.688.278 1.813.278 2.5 0 .688-.277.125-.504-1.25-.504s-1.937.227-1.25.504M89.5 131c.34.55.816 1 1.059 1s.441-.45.441-1-.477-1-1.059-1-.781.45-.441 1m72.313.683c.721.289 1.584.253 1.916-.079.332-.332-.258-.568-1.312-.525-1.165.048-1.402.285-.604.604m-74 5c.721.289 1.584.253 1.916-.079.332-.332-.258-.568-1.312-.525-1.165.048-1.402.285-.604.604m79 6c.721.289 1.584.253 1.916-.079.332-.332-.258-.568-1.312-.525-1.165.048-1.402.285-.604.604m-102.734 40.9c.048 1.165.285 1.402.604.605.289-.722.253-1.585-.079-1.917-.332-.332-.568.258-.525 1.312m29.579 6.866c-.371.967-.076 1.265.887.895.794-.304 1.195-.956.89-1.449-.766-1.24-1.132-1.126-1.777.554M104 189.378c0 .207.787.995 1.75 1.75 1.586 1.243 1.621 1.208.378-.378-1.307-1.666-2.128-2.195-2.128-1.372m4.546 5.364c-.326.849-.357 1.78-.07 2.068.288.288.524-.028.524-.702 0-.674.45-.948 1-.608.55.34 1 .086 1-.563 0-.855.485-.815 1.75.142 1.484 1.123 1.562 1.113.51-.067-1.747-1.962-4.015-2.092-4.714-.27m24.011 2.676c1.067.78 2.153 1.206 2.412.946.551-.55-2.028-2.326-3.41-2.349-.518-.008-.068.623.998 1.403m36.256.265c.721.289 1.584.253 1.916-.079.332-.332-.258-.568-1.312-.525-1.165.048-1.402.285-.604.604m19.49.766c1.103.825 1.385 1.553.725 1.875-.641.313-.586.43.134.289 2.203-.432 1.961-2.348-.371-2.936-2.116-.533-2.153-.475-.488.772m-48.034 13.244c.973.254 2.323.237 3-.037.677-.274-.119-.481-1.769-.461-1.65.02-2.204.244-1.231.498m7.981.035c2.063.216 5.438.216 7.5 0 2.063-.215.375-.392-3.75-.392s-5.812.177-3.75.392m12.563-.045c.721.289 1.584.253 1.916-.079.332-.332-.258-.568-1.312-.525-1.165.048-1.402.285-.604.604m-76.439 1.784c-.309.807-.37 2.044-.134 2.75s.666.045.956-1.467c.566-2.953.099-3.682-.822-1.283m81.58.619c-.614 1.147-.928 2.274-.697 2.504.23.23.932-.708 1.559-2.086 1.378-3.024.707-3.35-.862-.418M72.158 215c0 1.375.227 1.938.504 1.25.278-.687.278-1.812 0-2.5-.277-.687-.504-.125-.504 1.25m-6.079.583c.048 1.165.285 1.402.604.605.289-.722.253-1.585-.079-1.917-.332-.332-.568.258-.525 1.312m36 0c.048 1.165.285 1.402.604.605.289-.722.253-1.585-.079-1.917-.332-.332-.568.258-.525 1.312"/><path fill="#1976D2" fill-opacity=".136" fill-rule="evenodd" d="M0 127.977v128.076l29-.083c19.541-.056 29-.426 29-1.134 0-.577-.725-.772-1.611-.432-1.142.439-1.446.188-1.044-.861.312-.813.068-1.788-.543-2.165-.673-.416-.83-.232-.397.467.392.635.21 1.155-.405 1.155s-.797.52-.405 1.155c.433.699.276.883-.397.467-.611-.377-.875-1.301-.586-2.053.288-.752-.026-1.707-.698-2.122-.782-.484-.966-.34-.509.398.392.635.236 1.155-.346 1.155s-1.066-.562-1.074-1.25c-.011-.833-.339-.75-.985.25-.86 1.33-.971 1.329-.985-.013-.008-.832-1.027-1.957-2.265-2.5-1.237-.543-2.25-1.769-2.25-2.726 0-.956-.318-1.631-.707-1.5-.389.132-1.435-.661-2.324-1.761-.89-1.1-1.332-1.437-.984-.75.348.687.37 1.25.049 1.25s-1.029-1.171-1.573-2.602c-.587-1.545-1.531-2.393-2.324-2.089-2.276.873-1.229-5.252 2.064-12.084 1.866-3.87 2.635-6.517 2.008-6.905-.56-.346-.728-.16-.375.412.354.573-.036 1.606-.868 2.296-1.24 1.029-1.411.993-.954-.2.307-.8-.349-2.275-1.457-3.278-1.109-1.004-2.299-3.334-2.645-5.179-.401-2.138-1.043-3.106-1.77-2.67-.659.395-.596.011.15-.91 1.139-1.406.67-1.684-4-2.378-2.909-.432-5.55-.728-5.869-.657-.318.072-.498-.857-.4-2.063.098-1.206-.676-5.301-1.719-9.1-1.042-3.798-1.669-7.496-1.393-8.218.277-.721.066-1.581-.469-1.912-.535-.331-.733-.989-.44-1.463.293-.474.053-1.158-.532-1.52-.749-.463-.74-1.05.032-1.98.797-.961.792-1.51-.02-2.012-.614-.38-.875-1.32-.58-2.089.296-.77.075-1.399-.49-1.399-.566 0-.769-.419-.453-.931.317-.512.096-1.227-.489-1.589-.739-.457-.747-1.042-.025-1.911.572-.689.872-1.437.668-1.661-.205-.224-.672-3.298-1.038-6.83-.367-3.531-.91-6.814-1.206-7.293-.297-.48.062-1.614.797-2.521.735-.906.886-1.381.336-1.054-.568.337-1.048-.7-1.111-2.403l-.112-2.997 1.959 3.094c3.003 4.742 4.014 2.903 3.169-5.76-.411-4.204-.777-9.556-.815-11.894-.037-2.338-.523-4.257-1.079-4.265-.671-.01-.675-.262-.011-.75 1.119-.822 1.634-4.234.639-4.236-.351-.001-.636-4.839-.633-10.75.005-10.193-.67-14.364-2.286-14.121-2.45.369-2.72-1.042-2.72-14.224 0-7.752-.264-14.258-.586-14.457-.51-.315-.418-4.513.114-5.197.107-.138.194-1.15.194-2.25s-.087-2.112-.194-2.25c-.669-.86-.553-4.925.152-5.361.469-.29.529-1.051.134-1.691-.94-1.52-1.158-4.676-.358-5.171.346-.214.585-10.657.533-23.208L11.393.5 5.697.2 0-.1zM242.87 2c-.08 1.375-.043 3.4.081 4.5s.407 5.6.628 10c1.054 20.946 1.501 24.931 2.979 26.564 2.38 2.63 1.143 33.563-1.589 39.74-2.859 6.463-2.464 13.109.883 14.832 1.527.786 1.587 2.198.663 15.7-.558 8.16-.842 15.008-.632 15.217.561.556.469 10.054-.107 11.077-.269.478-.423 3.007-.342 5.62.081 2.612-.096 4.749-.394 4.749-.297-.001-.383 2.52-.192 5.601.192 3.082-.113 6.065-.677 6.629-.631.631-.693 1.897-.162 3.295.475 1.249.566 2.568.203 2.931-.363.363-.749 2.226-.857 4.139-.107 1.913-.493 5.825-.856 8.692-.364 2.868-.737 6.676-.83 8.463-.093 1.788-.522 3.25-.954 3.25-.432.001-.38.789.115 1.751 1.127 2.191.388 4.48-1.165 3.61-.874-.49-.872-.337.007.615 1.379 1.493.599 4.31-.931 3.365-.682-.422-.743-.156-.174.755 1.339 2.149 1.546 4.905.368 4.905-.579 0-.775.45-.435 1s.141 1-.441 1-1.059.477-1.059 1.059.45.781 1 .441 1-.141 1 .441-.375 1.059-.833 1.059c-.459 0-.88.563-.937 1.25-.159 1.918-1.068 7.219-1.286 7.5-.313.404-.684 2.131-.819 3.809-.069.857-.5 1.327-.958 1.044-.459-.283-.834.12-.834.897s.379 1.178.841.892c.463-.286.322.62-.313 2.013-.634 1.393-1.463 2.341-1.841 2.108-.377-.234-.687.21-.687.987s.333 1.206.74.955c.407-.252.506.438.22 1.532-.286 1.095-.823 1.804-1.192 1.575-.37-.228-.73.339-.801 1.261-.293 3.823-.745 6.066-1.142 5.668-.233-.233-1.343.746-2.468 2.176-1.782 2.266-2.199 3.494-2.607 7.69-.046.471-.781.589-1.635.261-.89-.341-1.291-.173-.941.393.364.589 7.468.989 17.552.989H256V0h-3.892c-3.385 0-3.979.348-4.563 2.677l-.672 2.678-1.93-2.928-1.93-2.927zM89.667 33.667C89.3 34.033 89 49.525 89 68.093v33.76l-5.533 3.166c-3.043 1.741-6.924 4.336-8.624 5.767-2.834 2.384-2.935 2.67-1.217 3.428 1.631.72 1.592.774-.298.421-2.808-.526-6.498 3.297-9.524 9.865-1.893 4.107-2.304 6.696-2.304 14.5 0 8.356.333 10.179 2.77 15.142 3.323 6.766 9.034 12.252 17.935 17.23l6.588 3.684 14.334-.278 14.335-.278-5.233-3.356c-6.409-4.109-13.512-11.857-17.052-18.599-2.257-4.298-2.651-6.304-2.663-13.545-.012-7.24.389-9.32 2.702-14.03 3.533-7.194 8.765-13.225 16.249-18.731l6.035-4.439.5-13.531.5-13.531 5.173 4.654 5.173 4.655 4.554-4.774 4.554-4.773.023 20.073.023 20.074 6.75 4.619c24.811 16.978 26.137 43.113 3.162 62.308-2.336 1.951-5.522 4.207-7.08 5.013L138 188.051v10.975c0 8.069.331 10.996 1.25 11.056.688.044 7.1.11 14.25.145l13 .064.293-10.896.294-10.895 6.206-3.647c8.777-5.157 14.807-10.788 18.204-16.998 2.531-4.626 2.981-6.649 3.31-14.855.314-7.851.015-10.469-1.722-15.082-2.691-7.142-10.106-14.63-19.243-19.431l-6.82-3.584-.261-40.702L166.5 33.5l-13.939-.279-13.938-.28-5.062 4.999-5.061 4.998-5.5-4.926-5.5-4.925-13.583-.044c-7.471-.024-13.884.257-14.25.624M92 38.5c0 .825.675 1.5 1.5 1.5s1.5-.675 1.5-1.5-.675-1.5-1.5-1.5-1.5.675-1.5 1.5m20 0c0 .825.675 1.5 1.5 1.5s1.5-.675 1.5-1.5-.675-1.5-1.5-1.5-1.5.675-1.5 1.5m29 0c0 .825.675 1.5 1.5 1.5s1.5-.675 1.5-1.5-.675-1.5-1.5-1.5-1.5.675-1.5 1.5m20 0c0 .825.675 1.5 1.5 1.5s1.5-.675 1.5-1.5-.675-1.5-1.5-1.5-1.5.675-1.5 1.5M118 40c0 1.867.267 2.133 1.2 1.2.933-.933.933-1.467 0-2.4-.933-.933-1.2-.667-1.2 1.2m18.446-.913c-.369.598-.171 1.588.441 2.2.817.817 1.113.528 1.113-1.087 0-2.415-.519-2.787-1.554-1.113M122.5 44c-1.077 1.742.519 3.229 2.078 1.935.77-.639 1.153-1.561.852-2.048-.73-1.181-2.165-1.125-2.93.113m9.07-.113c-.301.487.082 1.409.852 2.048 1.559 1.294 3.155-.193 2.078-1.935-.765-1.238-2.2-1.294-2.93-.113M92 45c0 .55.675 1 1.5 1s1.5-.45 1.5-1-.675-1-1.5-1-1.5.45-1.5 1m20 0c0 .55.675 1 1.5 1s1.5-.45 1.5-1-.675-1-1.5-1-1.5.45-1.5 1m29 0c0 .55.675 1 1.5 1s1.5-.45 1.5-1-.675-1-1.5-1-1.5.45-1.5 1m20 0c0 .55.675 1 1.5 1s1.5-.45 1.5-1-.675-1-1.5-1-1.5.45-1.5 1m-33.985 3.75c.037 1.778 1.747 3.444 2.419 2.357.376-.609.406-1.557.066-2.107-.721-1.166-2.507-1.346-2.485-.25M92 51.5c0 .825.675 1.5 1.5 1.5s1.5-.675 1.5-1.5-.675-1.5-1.5-1.5-1.5.675-1.5 1.5m20 0c0 .825.675 1.5 1.5 1.5s1.5-.675 1.5-1.5-.675-1.5-1.5-1.5-1.5.675-1.5 1.5m29 0c0 .825.675 1.5 1.5 1.5s1.5-.675 1.5-1.5-.675-1.5-1.5-1.5-1.5.675-1.5 1.5m20 0c0 .825.675 1.5 1.5 1.5s1.5-.675 1.5-1.5-.675-1.5-1.5-1.5-1.5.675-1.5 1.5m-38.782 2.654c.519 1.558 2.756 1.83 2.835.346.029-.55-.698-1.155-1.615-1.346-1.043-.215-1.5.159-1.22 1M92 58.5c0 .825.675 1.5 1.5 1.5s1.5-.675 1.5-1.5-.675-1.5-1.5-1.5-1.5.675-1.5 1.5m20 0c0 .825.675 1.5 1.5 1.5s1.5-.675 1.5-1.5-.675-1.5-1.5-1.5-1.5.675-1.5 1.5m6-.181c0 1.866 1.631 3.087 2.42 1.811.307-.497-.112-1.459-.931-2.139-1.211-1.005-1.489-.944-1.489.328m23 .181c0 .825.675 1.5 1.5 1.5s1.5-.675 1.5-1.5-.675-1.5-1.5-1.5-1.5.675-1.5 1.5m20 0c0 .825.675 1.5 1.5 1.5s1.5-.675 1.5-1.5-.675-1.5-1.5-1.5-1.5.675-1.5 1.5M92 65c0 .55.675 1 1.5 1s1.5-.45 1.5-1-.675-1-1.5-1-1.5.45-1.5 1m20 0c0 .55.675 1 1.5 1s1.5-.45 1.5-1-.675-1-1.5-1-1.5.45-1.5 1m29 0c0 .55.675 1 1.5 1s1.5-.45 1.5-1-.675-1-1.5-1-1.5.45-1.5 1m20 0c0 .55.675 1 1.5 1s1.5-.45 1.5-1-.675-1-1.5-1-1.5.45-1.5 1m-24.457 2.931c-.317.512-.118 1.213.441 1.559.559.345 1.016-.074 1.016-.931 0-1.757-.6-2.015-1.457-.628M92 71c0 .55.675 1 1.5 1s1.5-.45 1.5-1-.675-1-1.5-1-1.5.45-1.5 1m20 0c0 .55.675 1 1.5 1s1.5-.45 1.5-1-.675-1-1.5-1-1.5.45-1.5 1m29 0c0 .55.675 1 1.5 1s1.5-.45 1.5-1-.675-1-1.5-1-1.5.45-1.5 1m20 0c0 .55.675 1 1.5 1s1.5-.45 1.5-1-.675-1-1.5-1-1.5.45-1.5 1m-29.43 1.887c-.301.487.082 1.409.852 2.048 1.559 1.294 3.155-.193 2.078-1.935-.765-1.238-2.2-1.294-2.93-.113m-4.094 4.152c-1.008 1.63 1.231 3.654 2.566 2.319.724-.724.598-1.412-.411-2.249-1.074-.891-1.636-.91-2.155-.07M92 78c0 .55.675 1 1.5 1s1.5-.45 1.5-1-.675-1-1.5-1-1.5.45-1.5 1m20 0c0 .55.675 1 1.5 1s1.5-.45 1.5-1-.675-1-1.5-1-1.5.45-1.5 1m29 0c0 .55.675 1 1.5 1s1.5-.45 1.5-1-.675-1-1.5-1-1.5.45-1.5 1m20 0c0 .55.675 1 1.5 1s1.5-.45 1.5-1-.675-1-1.5-1-1.5.45-1.5 1m-69 6.667C92 85.4 92.675 86 93.5 86s1.5-.6 1.5-1.333c0-.734-.675-1.334-1.5-1.334s-1.5.6-1.5 1.334m20 0c0 .733.675 1.333 1.5 1.333s1.5-.6 1.5-1.333c0-.734-.675-1.334-1.5-1.334s-1.5.6-1.5 1.334m29 0c0 .733.675 1.333 1.5 1.333s1.5-.6 1.5-1.333c0-.734-.675-1.334-1.5-1.334s-1.5.6-1.5 1.334m20 0c0 .733.675 1.333 1.5 1.333s1.5-.6 1.5-1.333c0-.734-.675-1.334-1.5-1.334s-1.5.6-1.5 1.334M92 91c0 .55.675 1 1.5 1s1.5-.45 1.5-1-.675-1-1.5-1-1.5.45-1.5 1m20-.107c0 .491.675 1.152 1.5 1.469.914.35 1.5.001 1.5-.893 0-.808-.675-1.469-1.5-1.469s-1.5.402-1.5.893m29 .576c0 .894.586 1.243 1.5.893.825-.317 1.5-.978 1.5-1.469 0-.491-.675-.893-1.5-.893s-1.5.661-1.5 1.469M161 91c0 .55.675 1 1.5 1s1.5-.45 1.5-1-.675-1-1.5-1-1.5.45-1.5 1m-49 6.667c0 .733.675 1.333 1.5 1.333s1.5-.6 1.5-1.333c0-.734-.675-1.334-1.5-1.334s-1.5.6-1.5 1.334m29 0c0 .733.675 1.333 1.5 1.333s1.5-.6 1.5-1.333c0-.734-.675-1.334-1.5-1.334s-1.5.6-1.5 1.334M92 98c0 .55.675 1 1.5 1s1.5-.45 1.5-1-.675-1-1.5-1-1.5.45-1.5 1m69 0c0 .55.675 1 1.5 1s1.5-.45 1.5-1-.675-1-1.5-1-1.5.45-1.5 1m-20 6c0 .55.675 1 1.5 1s1.5-.45 1.5-1-.675-1-1.5-1-1.5.45-1.5 1m20 .333c0 .734.675 1.334 1.5 1.334s1.5-.6 1.5-1.334c0-.733-.675-1.333-1.5-1.333s-1.5.6-1.5 1.333M86 105c-1.293.835-1.266.971.191.985.93.008 1.969-.435 2.309-.985.782-1.266-.542-1.266-2.5 0m21.5 0c-.34.55.057 1 .882 1s1.778-.45 2.118-1c.34-.55-.057-1-.882-1s-1.778.45-2.118 1m-5.5 5c0 .55.423 1 .941 1s1.219-.45 1.559-1c.34-.55-.084-1-.941-1s-1.559.45-1.559 1m39 1c0 .55.675 1 1.5 1s1.5-.45 1.5-1-.675-1-1.5-1-1.5.45-1.5 1m20 0c0 .55.675 1 1.5 1s1.5-.45 1.5-1-.675-1-1.5-1-1.5.45-1.5 1m-63.49 4.016c.346.559 1.047.758 1.559.441 1.387-.857 1.129-1.457-.628-1.457-.857 0-1.276.457-.931 1.016m48.24 2.646c.688.278 1.813.278 2.5 0 .688-.277.125-.504-1.25-.504s-1.937.227-1.25.504M67.5 120c-.34.55.084 1 .941 1S70 120.55 70 120s-.423-1-.941-1-1.219.45-1.559 1m25.5 0c0 .55.675 1 1.5 1s1.5-.45 1.5-1-.675-1-1.5-1-1.5.45-1.5 1m80.733 1.124c.679.684 1.486.991 1.793.683.308-.308-.247-.867-1.233-1.243-1.425-.542-1.54-.428-.56.56M151.5 122c.34.55 1.266 1 2.059 1 .793 0 1.441-.45 1.441-1s-.927-1-2.059-1c-1.132 0-1.781.45-1.441 1m-86 3c-.34.55-.141 1 .441 1S67 125.55 67 125s-.198-1-.441-1-.719.45-1.059 1m25 0c-.34.55.057 1 .882 1s1.778-.45 2.118-1c.34-.55-.057-1-.882-1s-1.778.45-2.118 1m66.5 1c-1.207.78-1.049.972.809.985 1.288.008 2.036-.427 1.691-.985-.743-1.202-.639-1.202-2.5 0m23 0c1.958 1.266 3.282 1.266 2.5 0-.34-.55-1.379-.993-2.309-.985-1.457.014-1.484.15-.191.985m-117 5c0 .55.423 1 .941 1s1.219-.45 1.559-1c.34-.55-.084-1-.941-1S63 130.45 63 131m25.8.2c.933.933 1.467.933 2.4 0 .933-.933.667-1.2-1.2-1.2s-2.133.267-1.2 1.2m95.7-.2c.34.55 1.293 1 2.118 1s1.222-.45.882-1c-.34-.55-1.293-1-2.118-1s-1.222.45-.882 1m-23.7 1.2c.933.933 1.467.933 2.4 0 .933-.933.667-1.2-1.2-1.2s-2.133.267-1.2 1.2M87 136c0 .55.675 1 1.5 1s1.5-.45 1.5-1-.675-1-1.5-1-1.5.45-1.5 1m101-.076c0 .474.675 1.121 1.5 1.438.825.316 1.5.187 1.5-.286 0-.474-.675-1.121-1.5-1.438-.825-.316-1.5-.187-1.5.286m-125 1.135c0 .582.45.781 1 .441s1-.816 1-1.059-.45-.441-1-.441-1 .477-1 1.059M163.5 137c.34.55 1.266 1 2.059 1 .793 0 1.441-.45 1.441-1s-.927-1-2.059-1c-1.132 0-1.781.45-1.441 1M63 142c0 .55.45 1 1 1s1-.45 1-1-.45-1-1-1-1 .45-1 1m24 0c0 .55.675 1 1.5 1s1.5-.45 1.5-1-.675-1-1.5-1-1.5.45-1.5 1m78 0c0 .55.9 1 2 1s2-.45 2-1-.9-1-2-1-2 .45-2 1m25.5 0c.34.55 1.068 1 1.618 1s.722-.45.382-1c-.34-.55-1.068-1-1.618-1s-.722.45-.382 1M89 147c-.793.49-1.217 1.116-.942 1.391.275.275 1.149.099 1.942-.391.793-.49 1.217-1.116.942-1.391-.275-.275-1.149-.099-1.942.391m-25 1c0 .55.45 1 1 1s1-.45 1-1-.45-1-1-1-1 .45-1 1m102 0c0 .55.927 1 2.059 1 1.132 0 1.781-.45 1.441-1-.34-.55-1.266-1-2.059-1-.793 0-1.441.45-1.441 1m25.51.016c.346.559 1.047.758 1.559.441 1.387-.857 1.129-1.457-.628-1.457-.857 0-1.276.457-.931 1.016m-125.777 5.108c.679.684 1.486.991 1.793.683.308-.308-.247-.867-1.233-1.243-1.425-.542-1.54-.428-.56.56M89.5 153c.34.55 1.266 1 2.059 1 .793 0 1.441-.45 1.441-1s-.927-1-2.059-1c-1.132 0-1.781.45-1.441 1m102.5 0c0 .55.477 1 1.059 1s.781-.45.441-1-.816-1-1.059-1-.441.45-.441 1m-26 .833c0 .459.675.834 1.5.834s1.5-.375 1.5-.834c0-.458-.675-.833-1.5-.833s-1.5.375-1.5.833M92.5 158c-.34.55.309 1 1.441 1 1.132 0 2.059-.45 2.059-1s-.648-1-1.441-1-1.719.45-2.059 1m-23 1c.34.55 1.068 1 1.618 1s.722-.45.382-1c-.34-.55-1.068-1-1.618-1s-.722.45-.382 1m95.5 0c0 .55.675 1 1.5 1s1.5-.45 1.5-1-.675-1-1.5-1-1.5.45-1.5 1m26 0c0 .55.45 1 1 1s1-.45 1-1-.45-1-1-1-1 .45-1 1m-117.5 5c.34.55 1.379.993 2.309.985 1.457-.014 1.484-.15.191-.985-1.958-1.266-3.282-1.266-2.5 0m23.25-.338c.688.278 1.813.278 2.5 0 .688-.277.125-.504-1.25-.504s-1.937.227-1.25.504M190 164c-.793.49-1.217 1.116-.942 1.391.275.275 1.149.099 1.942-.391.793-.49 1.217-1.116.942-1.391-.275-.275-1.149-.099-1.942.391m-27 1c0 .55.675 1 1.5 1s1.5-.45 1.5-1-.675-1-1.5-1-1.5.45-1.5 1m-61.468 3.052c.322.522 1.534.948 2.694.948 2.553 0 1.87-.904-1.117-1.479-1.2-.231-1.902.005-1.577.531m-20.719.631c.721.289 1.584.253 1.916-.079.332-.332-.258-.568-1.312-.525-1.165.048-1.402.285-.604.604M160.5 170c-.34.55.084 1 .941 1s1.559-.45 1.559-1-.423-1-.941-1-1.219.45-1.559 1m26 0c-.34.55-.168 1 .382 1s1.278-.45 1.618-1c.34-.55.168-1-.382-1s-1.278.45-1.618 1m-77.687 2.683c.721.289 1.584.253 1.916-.079.332-.332-.258-.568-1.312-.525-1.165.048-1.402.285-.604.604M156.5 175c-.34.55.11 1 1 1s1.34-.45 1-1c-.34-.55-.79-1-1-1-.21 0-.66.45-1 1m26 0c-1.63.701-1.688.872-.309.93.93.038 1.969-.38 2.309-.93.711-1.15.676-1.15-2 0m-30 5c-.34.55-.141 1 .441 1s1.059-.45 1.059-1-.198-1-.441-1-.719.45-1.059 1m-5.942 4.907c-.309.498.34.671 1.441.383 2.335-.611 2.63-1.29.56-1.29-.793 0-1.693.408-2.001.907M168 185c-.825.533-1.05.969-.5.969s1.675-.436 2.5-.969c.825-.533 1.05-.969.5-.969s-1.675.436-2.5.969m-27 7.531c0 .808.675 1.469 1.5 1.469s1.5-.402 1.5-.893-.675-1.152-1.5-1.469c-.914-.35-1.5-.001-1.5.893m20 0c0 .808.675 1.469 1.5 1.469s1.5-.402 1.5-.893-.675-1.152-1.5-1.469c-.914-.35-1.5-.001-1.5.893M141 199c0 .55.675 1 1.5 1s1.5-.45 1.5-1-.675-1-1.5-1-1.5.45-1.5 1m20 0c0 .55.675 1 1.5 1s1.5-.45 1.5-1-.675-1-1.5-1-1.5.45-1.5 1m-20 7c0 .55.675 1 1.5 1s1.5-.45 1.5-1-.675-1-1.5-1-1.5.45-1.5 1m20 0c0 .55.675 1 1.5 1s1.5-.45 1.5-1-.675-1-1.5-1-1.5.45-1.5 1m-93.361 8.498c-.931 2.427-.876 2.502 1.861 2.502 1.833 0 2.5-.533 2.5-2 0-1.1-.45-2-1-2s-1.007.563-1.015 1.25c-.012.936-.228.915-.861-.084-.675-1.064-.975-.997-1.485.332m9.676.502c.102 1.375.635 2.5 1.185 2.5s1.105-1.125 1.233-2.5c.206-2.21.134-2.268-.615-.5l-.848 2-.57-2c-.441-1.548-.528-1.435-.385.5m7.717-.309c-.034 2.339 1.475 3.915 2.367 2.473.295-.478-.109-1.723-.899-2.767-1.389-1.835-1.437-1.825-1.468.294m7.7.394c.415 1.584.748 1.764 1.391.75 1.232-1.944 1.066-2.835-.529-2.835-.933 0-1.223.702-.862 2.085m7.426-.085c0 1.375.227 1.938.504 1.25.278-.687.278-1.812 0-2.5-.277-.687-.504-.125-.504 1.25m6.509-1.333c-1.129 1.128-.74 3.091.723 3.652.969.372 1.347-.2 1.25-1.892-.141-2.446-.747-2.986-1.973-1.76m7.864.626c-.428.986-.497 2.074-.155 2.417 1.016 1.015 1.835-.411 1.367-2.382-.414-1.747-.468-1.748-1.212-.035m6.469.629c0 .959.675 1.745 1.5 1.745s1.5-.375 1.5-.834c0-.458.112-1.128.25-1.488.138-.36-.537-.77-1.5-.911-1.096-.161-1.75.395-1.75 1.488m8.336-.355c-.331.862-.092 2.077.531 2.7.623.623 1.17.93 1.216.683.845-4.561-.383-6.938-1.747-3.383m8.02.683c.326 2.14 2.254 2.847 2.044.75-.254-2.545-.466-3-1.394-3-.546 0-.839 1.012-.65 2.25m13.644-.128c0 1.767.25 1.916 1.489.887 1.505-1.249 1.184-3.009-.548-3.009-.518 0-.941.955-.941 2.122m8.07-.431c-.038 1.205.38 2.469.93 2.809 1.183.731 1.183-.248 0-3-.829-1.928-.862-1.921-.93.191m7.537-.109c-.877 2.285-.805 2.418 1.299 2.418 1.414 0 1.772-.517 1.384-2-.628-2.401-1.849-2.592-2.683-.418m8.393.918c0 1.375.398 2.5.883 2.5.486 0 1.099-1.125 1.362-2.5.32-1.676.029-2.5-.884-2.5-.785 0-1.361 1.058-1.361 2.5m7.71-.5c-.388 1.483-.03 2 1.384 2 2.104 0 2.176-.133 1.299-2.418-.834-2.174-2.055-1.983-2.683.418m-147.631.583c.048 1.165.285 1.402.604.605.289-.722.253-1.585-.079-1.917-.332-.332-.568.258-.525 1.312m56.406 28.392c.348.564.195 1.025-.34 1.025-.856 0-7.145 9.255-7.145 10.515 0 .267 12.368.485 27.485.485h27.486l-1.937-3.184c-1.065-1.751-2.635-3.287-3.49-3.412-.854-.126-1.324.143-1.044.596.424.687-1.628.667-3.5-.034-.275-.103-1.563-.099-2.862.01-1.3.108-2.107-.217-1.794-.723.312-.506-.067-.92-.844-.92-.777 0-1.222.307-.99.682.231.376-.921.721-2.562.767-1.912.055-2.742-.306-2.311-1.003.446-.722.199-.793-.732-.212-1.979 1.235-4.025 1.436-3.341.329.316-.511 1.063-.627 1.66-.258.613.379.8.21.43-.39-.361-.583-1.556-.825-2.655-.537-1.232.322-1.999.03-1.999-.761 0-.706-.289-.994-.643-.641-.353.354-.102 1.293.558 2.088.992 1.196.846 1.353-.847.911-1.187-.311-1.76-1.012-1.365-1.672.375-.625-.167-.461-1.203.364-1.098.874-1.571.979-1.133.25.477-.794.161-1.25-.867-1.25s-1.344.456-.867 1.25c.599.997.441.999-.783.009-.844-.683-1.886-.908-2.316-.5-.43.407-.48-.384-.11-1.759.542-2.018.467-2.175-.392-.81-1.18 1.874-4.898 1.631-6.536-.428-1.216-1.53-3.904-2.232-3.011-.787m-49.818.692c-.367.366-.667 1.131-.667 1.7 0 .626.466.567 1.183-.15.651-.651.951-1.416.667-1.7-.284-.285-.817-.217-1.183.15m54.77.104c.342.341 1.324.723 2.184.85.859.126 1.283-.05.942-.392-.342-.341-1.324-.723-2.184-.85-.859-.126-1.283.05-.942.392m115.265 2.896c.348.905-.343 1.333-2.154 1.333-1.566 0-2.405.423-2.033 1.025.954 1.543-1.812.695-3.343-1.025-1.178-1.324-1.276-1.309-.833.126.64 2.068-2.313 1.979-4.144-.126-1.093-1.256-1.126-1.13-.2.778.646 1.331 1.604 1.998 2.305 1.603.92-.517.926-.378.028.594-2.03 2.198-.363 4.025 3.674 4.025 3.513 0 3.972-.351 6.316-4.833 1.785-3.414 2.137-4.834 1.2-4.834-.73 0-1.097.6-.816 1.334M134 250.941c0 .518.445 1.216.989 1.552.566.35.734-.051.393-.941-.665-1.732-1.382-2.049-1.382-.611"/><path fill="#1976D2" fill-opacity=".804" fill-rule="evenodd" d="M89.881 34.25c-.065.138-.196 15.465-.291 34.062-.145 28.409-.406 33.959-1.631 34.735-1.182.747-1.089.925.491.938 3.343.026.348 1.881-3.77 2.334-2.101.231-4.303.904-4.894 1.495-.766.766-.386.925 1.32.556 2.32-.502 2.334-.47.453 1.056-1.068.866-2.894 1.574-4.059 1.574s-2.991.653-4.059 1.45c-1.846 1.379-1.818 1.42.559.827 2.263-.565 2.367-.462 1.097 1.087-.772.94-2.122 1.592-3 1.448-1.861-.305-4.097.904-4.097 2.216 0 .5.675.65 1.5.334.825-.317 1.5-.094 1.5.496 0 1.266-3.49 3.318-4.287 2.521-.303-.303-1.03.344-1.615 1.437-.93 1.739-.799 1.919 1.053 1.434 1.52-.397 1.986-.158 1.655.848-.255.771-1.394 1.54-2.532 1.708-1.139.169-2.306 1.207-2.593 2.307-.433 1.653-.272 1.793.922.802 1.734-1.44 2.872-.596 2.058 1.525-.337.879-1.238 1.276-2.123.936-1.08-.414-1.538.029-1.538 1.486 0 1.434.464 1.897 1.5 1.5.95-.365 1.5.013 1.5 1.031 0 .884-.675 1.607-1.5 1.607s-1.5.675-1.5 1.5.675 1.5 1.5 1.5 1.5.723 1.5 1.607c0 1.018-.55 1.396-1.5 1.031-1.108-.425-1.496.134-1.485 2.143.012 2.105.23 2.38.964 1.219.83-1.312 1.168-1.281 2.699.25 1.667 1.667 1.642 1.75-.531 1.75-1.905 0-2.167.371-1.588 2.25 1.235 4.002 3.2 7.179 6.526 10.554 4.113 4.172 8.915 7.62 8.915 6.403 0-1.196 4.828-.294 5.663 1.057.404.654-.411.826-2.245.476-2.561-.49-2.682-.406-1.095.755.982.718 3.381 1.305 5.331 1.305 1.95 0 4.064.553 4.696 1.229.9.962.498 1.086-1.85.57-2.195-.483-2.597-.387-1.5.355.834.565 7.684 1.022 15.428 1.031l13.927.015-6.09-4.25c-13.558-9.46-21.459-23.618-19.594-35.111.525-3.232.352-3.639-1.54-3.639-1.228 0-2.131-.636-2.131-1.5 0-1.803 3.969-2.047 4.07-.25.039.688.457.35.93-.75 1.298-3.019 1.176-3.359-1-2.79-1.432.375-2 .031-2-1.21 0-1.254.622-1.618 2.25-1.318 1.777.328 2.892-.556 5.307-4.208l3.058-4.623-2.438.466c-1.771.339-2.307.085-1.96-.925.263-.766 1.706-1.372 3.208-1.347 1.771.03 3.992-1.145 6.327-3.348 1.979-1.866 5.319-4.48 7.423-5.808l3.825-2.414V87.987c0-7.693.266-13.987.591-13.987.324 0 3.047 2.099 6.049 4.664l5.459 4.663 4.95-4.876L139 73.575v41.35l5.87 3.987c7.003 4.755 13.367 11.733 16.955 18.588 2.181 4.167 2.622 6.342 2.646 13.062.028 7.83.094 8.05 2.293 7.631 1.783-.34 2.129-.078 1.627 1.23-.368.959-1.496 1.538-2.671 1.369-2.762-.397-3.342 1.812-.66 2.513 2.65.693 1.626 2.695-1.378 2.695-1.211 0-2.719.83-3.353 1.844-1.018 1.631-.871 1.791 1.274 1.381 1.961-.375 2.301-.138 1.774 1.236-.429 1.117-1.349 1.518-2.683 1.169-1.506-.394-3.046.625-5.971 3.947-2.167 2.463-6.704 6.45-10.082 8.861l-6.141 4.385V209.5l13.75.278 13.75.278v-11.028c0-6.065.364-11.028.809-11.028.445 0 1.674-.632 2.731-1.405 1.789-1.309 1.715-1.378-1.059-.996l-2.981.41 3-1.408c1.65-.773 3.241-1.018 3.535-.543.294.475 1.869-.053 3.5-1.173 2.751-1.89 2.785-1.985.473-1.317-2.229.644-2.348.547-1.128-.924.751-.904 2.605-1.644 4.12-1.644 1.515 0 3.324-.685 4.019-1.523 1.067-1.285.986-1.416-.514-.841-1.265.486-1.644.276-1.314-.727.255-.775 1.633-1.548 3.063-1.718 1.43-.171 3.192-1.023 3.915-1.895 1.151-1.386 1.035-1.495-.927-.873-2.986.948-2.979-1.209.008-2.338 1.237-.468 2.54-.681 2.895-.473.355.207.903-.296 1.219-1.118.387-1.009-.056-1.494-1.364-1.494-1.311 0-1.751-.485-1.362-1.5.696-1.813 3.334-2.005 3.432-.25.039.688.457.35.93-.75 1.302-3.03 1.172-3.5-.969-3.5-1.349 0-1.785-.478-1.386-1.518.32-.834 1.303-1.397 2.183-1.25.88.148 1.755-.484 1.944-1.404.258-1.254-.17-1.537-1.714-1.133-1.493.39-2.058.062-2.058-1.195 0-1.241.568-1.585 2-1.21 1.697.444 1.989.045 1.93-2.634-.091-4.052-1.063-6.156-2.847-6.156-.779 0-1.627-.631-1.884-1.402-.338-1.015.132-1.245 1.708-.833 1.861.487 2.079.256 1.507-1.598-1.353-4.391-3.464-7.585-4.701-7.111-.699.269-2.157-.227-3.242-1.102-1.887-1.522-1.843-1.563 1.029-.949l3 .641-3.485-3.613c-4.058-4.207-10.191-8.156-9.379-6.038.372.969-.08 1.202-1.573.811-2.71-.709-3.699-2.306-1.426-2.306 1.024 0-.154-1.21-2.829-2.907l-4.584-2.907-.013-39.843-.013-39.843-13.865-.276-13.865-.276-4.442 4.526c-2.444 2.489-4.839 4.526-5.323 4.526s-3.195-2.025-6.024-4.5l-5.145-4.5h-13.767c-7.572 0-13.82.112-13.886.25M91 38.5c0 .933.944 1.5 2.5 1.5s2.5-.567 2.5-1.5-.944-1.5-2.5-1.5-2.5.567-2.5 1.5m20 0c0 .833.889 1.5 2 1.5s2-.667 2-1.5-.889-1.5-2-1.5-2 .667-2 1.5m30 0c0 .833.889 1.5 2 1.5s2-.667 2-1.5-.889-1.5-2-1.5-2 .667-2 1.5m19 0c0 .933.944 1.5 2.5 1.5s2.5-.567 2.5-1.5-.944-1.5-2.5-1.5-2.5.567-2.5 1.5m-42.077-.25c-.563 1.841-.606 3.747-.085 3.735 1.621-.038 3.355-1.863 2.731-2.873-.599-.969-2.43-1.566-2.646-.862m18.254 1.417c.178.917.85 1.843 1.494 2.057.745.248.976-.358.634-1.667-.639-2.444-2.596-2.803-2.128-.39m-14.212 3.875c-.974 1.174-1.002 1.821-.115 2.708 1.43 1.43 4.782-1.419 3.709-3.154-.935-1.514-2.086-1.371-3.594.446M91 45c0 1.646.518 2.065 2.25 1.82 1.237-.176 2.25-.995 2.25-1.82 0-.825-1.013-1.644-2.25-1.82-1.732-.245-2.25.174-2.25 1.82m20.667-1.333C110.29 45.043 111.073 47 113 47c1.333 0 2-.667 2-2 0-1.927-1.957-2.71-3.333-1.333m19.806.377c-.355.574-.097 1.704.574 2.512.931 1.122 1.544 1.198 2.598.324 1.044-.866 1.103-1.479.245-2.513-1.356-1.634-2.538-1.745-3.417-.323m9.527.883c0 1.431.642 2.073 2.073 2.073 2.563 0 2.272-3.31-.334-3.812-1.2-.231-1.739.308-1.739 1.739M160.5 44c-.923 1.494.361 3 2.559 3 1.274 0 1.941-.687 1.941-2 0-2.121-3.347-2.865-4.5-1m-33.348 4.317c-.918 1.107-.835 1.701.378 2.708 2.335 1.938 4.487-.436 2.341-2.582-1.326-1.327-1.708-1.344-2.719-.126M91 51.5c0 .933.944 1.5 2.5 1.5s2.5-.567 2.5-1.5-.944-1.5-2.5-1.5-2.5.567-2.5 1.5m20 0c0 .833.889 1.5 2 1.5s2-.667 2-1.5-.889-1.5-2-1.5-2 .667-2 1.5m30 0c0 .833.889 1.5 2 1.5s2-.667 2-1.5-.889-1.5-2-1.5-2 .667-2 1.5m19 0c0 .933.944 1.5 2.5 1.5s2.5-.567 2.5-1.5-.944-1.5-2.5-1.5-2.5.567-2.5 1.5m-37.848 1.817c-.918 1.107-.835 1.701.378 2.708 2.335 1.938 4.487-.436 2.341-2.582-1.326-1.327-1.708-1.344-2.719-.126M91 58.5c0 .933.944 1.5 2.5 1.5s2.5-.567 2.5-1.5-.944-1.5-2.5-1.5-2.5.567-2.5 1.5m20 0c0 .833.889 1.5 2 1.5s2-.667 2-1.5-.889-1.5-2-1.5-2 .667-2 1.5m6.702-.869c-.347.348-.166 1.502.403 2.565.829 1.549 1.321 1.695 2.477.736 1.094-.908 1.169-1.528.308-2.565-1.238-1.491-2.209-1.715-3.188-.736m22.992.008c-1.043 1.043.278 2.361 2.365 2.361 1.068 0 1.941-.675 1.941-1.5 0-1.483-3.07-2.097-4.306-.861M160 58.5c0 .933.944 1.5 2.5 1.5s2.5-.567 2.5-1.5-.944-1.5-2.5-1.5-2.5.567-2.5 1.5m-68.825 6.169c.424 2.201 4.325 2.5 4.325.331 0-.825-1.053-1.649-2.339-1.831-1.814-.257-2.26.08-1.986 1.5M111 65c0 1.333.667 2 2 2s2-.667 2-2-.667-2-2-2-2 .667-2 2m30 0c0 1.333.667 2 2 2s2-.667 2-2-.667-2-2-2-2 .667-2 2m19.446-.913c-.945 1.529 1.106 3.299 2.987 2.577.862-.331 1.567-1.29 1.567-2.133 0-1.747-3.535-2.092-4.554-.444m-24.226 3.148c-1.006 1.212-.95 1.744.292 2.775 1.933 1.604 2.324 1.128 1.558-1.893-.522-2.056-.775-2.177-1.85-.882m-43.97 2.496C89.958 70.53 90.903 73 93.5 73c1.47 0 2.5-.574 2.5-1.393 0-1.581-1.888-2.526-3.75-1.876m19.25.102C110.267 71.066 111.184 73 113 73c1.273 0 2-.667 2-1.833 0-1.671-2.291-2.543-3.5-1.334m29.5 1.255c0 1.268.699 1.912 2.073 1.912 1.393 0 1.968-.543 1.75-1.656-.47-2.41-3.823-2.634-3.823-.256m20.25-1.357c-2.292.799-1.347 3.269 1.25 3.269 1.47 0 2.5-.574 2.5-1.393 0-1.581-1.888-2.526-3.75-1.876m-29.777 2.313c-.355.574-.097 1.704.574 2.512.931 1.122 1.544 1.198 2.598.324 1.044-.866 1.103-1.479.245-2.513-1.356-1.634-2.538-1.745-3.417-.323m-40.298 5.625c.424 2.201 4.325 2.5 4.325.331 0-.825-1.053-1.649-2.339-1.831-1.814-.257-2.26.08-1.986 1.5m20.002-.013c.47 2.41 3.823 2.634 3.823.256 0-1.268-.699-1.912-2.073-1.912-1.393 0-1.968.543-1.75 1.656m15.264-.56c-1.073 1.735 2.279 4.584 3.709 3.154.887-.887.859-1.534-.115-2.708-1.508-1.817-2.659-1.96-3.594-.446m14.559.816c0 2.378 3.353 2.154 3.823-.256.218-1.113-.357-1.656-1.75-1.656-1.374 0-2.073.644-2.073 1.912m19.19-.162c.186.963 1.225 1.75 2.31 1.75s2.124-.787 2.31-1.75c.252-1.311-.328-1.75-2.31-1.75s-2.562.439-2.31 1.75M91 84.5c0 .933.944 1.5 2.5 1.5s2.5-.567 2.5-1.5-.944-1.5-2.5-1.5-2.5.567-2.5 1.5m20 0c0 .833.889 1.5 2 1.5s2-.667 2-1.5-.889-1.5-2-1.5-2 .667-2 1.5m30 0c0 .833.889 1.5 2 1.5s2-.667 2-1.5-.889-1.5-2-1.5-2 .667-2 1.5m19 0c0 .933.944 1.5 2.5 1.5s2.5-.567 2.5-1.5-.944-1.5-2.5-1.5-2.5.567-2.5 1.5m-48.5 5.333C110.267 91.066 111.184 93 113 93c1.273 0 2-.667 2-1.833 0-1.671-2.291-2.543-3.5-1.334m30.75-.115c-2.017.724-1.433 3.282.75 3.282 1.1 0 2-.648 2-1.441 0-1.739-1.058-2.448-2.75-1.841m18.192.376c-.872 1.41.475 2.906 2.617 2.906 1.068 0 1.941-.623 1.941-1.383 0-1.612-3.732-2.859-4.558-1.523M91 91.57c0 1.042.729 1.462 2.172 1.25 3.201-.472 3.544-2.82.411-2.82-1.68 0-2.583.549-2.583 1.57m0 5.86c0 1.021.903 1.57 2.583 1.57 3.133 0 2.79-2.348-.411-2.82-1.443-.212-2.172.208-2.172 1.25m20 .07c0 .833.889 1.5 2 1.5s2-.667 2-1.5-.889-1.5-2-1.5-2 .667-2 1.5m30 0c0 .833.889 1.5 2 1.5s2-.667 2-1.5-.889-1.5-2-1.5-2 .667-2 1.5m19.667-.833c-1.36 1.359-.595 2.333 1.833 2.333 1.556 0 2.5-.567 2.5-1.5 0-1.5-3.075-2.091-4.333-.833m-18.417 6.051c-2.017.724-1.433 3.282.75 3.282 1.1 0 2-.648 2-1.441 0-1.739-1.058-2.448-2.75-1.841m17.995 1.532c.633 1.923 4.755 2.2 4.755.32 0-1.021-.903-1.57-2.583-1.57-1.62 0-2.43.466-2.172 1.25m-53.68.645c-.961 1.555 2.232 2.054 3.484.546.975-1.175.815-1.441-.868-1.441-1.134 0-2.312.403-2.616.895m-5.106 4.172c-.363.586-.409 1.317-.102 1.623.822.823 3.643-.461 3.643-1.659 0-1.357-2.697-1.33-3.541.036M141 111c0 1.333.667 2 2 2s2-.667 2-2-.667-2-2-2-2 .667-2 2m19.446-.913c-.945 1.529 1.106 3.299 2.987 2.577.862-.331 1.567-1.29 1.567-2.133 0-1.747-3.535-2.092-4.554-.444M145 117.5c1.346 1.622 5 2.066 5 .607 0-1.02-2.427-2.107-4.704-2.107-1.256 0-1.311.277-.296 1.5m21.5-.011c1.65.729 3.212 1.118 3.471.864.777-.762-2.324-2.327-4.471-2.256-1.548.051-1.321.365 1 1.392m-73.041 1.578c-.363.586-.409 1.317-.102 1.623.822.823 3.643-.461 3.643-1.659 0-1.357-2.697-1.33-3.541.036M150 120.893c0 1.02 2.427 2.107 4.704 2.107 1.256 0 1.311-.277.296-1.5-1.346-1.622-5-2.066-5-.607m28.88 4.463c.751.904 2.3 1.644 3.442 1.644 2.537 0 1.197-1.466-2.314-2.532-2.231-.677-2.349-.584-1.128.888m-23.88.625c0 1.109 4.795 2.557 5.647 1.706.304-.305.257-1.034-.106-1.62-.827-1.34-5.541-1.412-5.541-.086m5 5.449c0 1.021.903 1.57 2.583 1.57 3.133 0 2.79-2.348-.411-2.82-1.443-.212-2.172.208-2.172 1.25m-73 5.143c0 .932.68 1.442 1.667 1.25 2.509-.486 2.853-2.823.416-2.823-1.228 0-2.083.646-2.083 1.573m76.5-.573c-.989 1.6.335 2.856 2.432 2.308 1.147-.3 1.712-1.073 1.392-1.907-.623-1.622-2.92-1.863-3.824-.401m24.5.5c.685.825 1.92 1.5 2.745 1.5 1.22 0 1.267-.28.255-1.5-.685-.825-1.92-1.5-2.745-1.5-1.22 0-1.267.28-.255 1.5m-100.195 4.239c-.932.212-1.465.983-1.185 1.713.287.747 1.355 1.106 2.445.821 3.329-.871 2.12-3.306-1.26-2.534M165 142.5c0 .833.889 1.5 2 1.5s2-.667 2-1.5-.889-1.5-2-1.5-2 .667-2 1.5m-78 4.93c0 1.021.903 1.57 2.583 1.57 3.133 0 2.79-2.348-.411-2.82-1.443-.212-2.172.208-2.172 1.25m79 .158c0 .777.938 1.412 2.083 1.412 1.146 0 1.909-.523 1.696-1.163-.566-1.697-3.779-1.908-3.779-.249m25-.171c0 .87.713 1.583 1.583 1.583 1.766 0 1.459-2.153-.395-2.771-.654-.218-1.188.317-1.188 1.188m-100.305 4.34c-2.398.546-1.528 2.841.909 2.398 1.043-.19 2.091-.535 2.329-.767.87-.846-1.483-2.031-3.238-1.631m-25.477 1.397c.246.741 1.25 1.501 2.23 1.692 1.14.22 1.621-.14 1.334-1-.246-.741-1.25-1.501-2.23-1.692-1.14-.22-1.621.14-1.334 1M166 153.5c0 .833.889 1.5 2 1.5s2-.667 2-1.5-.889-1.5-2-1.5-2 .667-2 1.5m-97.729 4.829c.212.644 1.413 1.321 2.668 1.505 2.767.405 1.952-1.368-.981-2.135-1.32-.345-1.932-.117-1.687.63m23.937.308c.924.924 2.351 1.362 3.278 1.007 2.356-.904.869-2.644-2.259-2.644-2.459 0-2.534.121-1.019 1.637m4.009 4.529c.242.734 1.467 1.484 2.723 1.668 1.551.227 2.142-.093 1.843-1-.242-.734-1.467-1.484-2.723-1.668-1.551-.227-2.142.093-1.843 1m-22.844.629c.916 1.481 4.813 2.265 4.356.876-.212-.644-1.413-1.321-2.668-1.505-1.281-.188-2.022.089-1.688.629m27.974 4.668c1.016.77 2.476 1.158 3.244.864 2.167-.832.598-2.331-2.4-2.295-2.521.03-2.574.12-.844 1.431m5.653 3.47c0 1.166 3.922 2.478 4.796 1.604.75-.75-1.711-2.499-3.546-2.522-.687-.008-1.25.405-1.25.918m49.459 3.134c-.363.586-.409 1.317-.102 1.623.822.823 3.643-.461 3.643-1.659 0-1.357-2.697-1.33-3.541.036m-4.792 4.6c-1.117 1.116-.747 2.333.711 2.333.757 0 1.937-.675 2.622-1.5 1.034-1.246.914-1.5-.711-1.5-1.076 0-2.256.3-2.622.667M145.5 185c-.34.55.282 1 1.382 1 1.1 0 2.278-.45 2.618-1 .34-.55-.282-1-1.382-1-1.1 0-2.278.45-2.618 1m-4.5 7.5c0 .833.889 1.5 2 1.5s2-.667 2-1.5-.889-1.5-2-1.5-2 .667-2 1.5m19 0c0 .933.944 1.5 2.5 1.5s2.5-.567 2.5-1.5-.944-1.5-2.5-1.5-2.5.567-2.5 1.5m-19 6.588c0 1.268.699 1.912 2.073 1.912 1.393 0 1.968-.543 1.75-1.656-.47-2.41-3.823-2.634-3.823-.256m19.918-1.037c-1.073.663-1.126 1.141-.227 2.04 1.257 1.257 4.309.582 4.309-.953 0-1.399-2.5-2.065-4.082-1.087M141 205.5c0 .833.889 1.5 2 1.5s2-.667 2-1.5-.889-1.5-2-1.5-2 .667-2 1.5m19.667-.833c-1.36 1.359-.595 2.333 1.833 2.333 1.556 0 2.5-.567 2.5-1.5 0-1.5-3.075-2.091-4.333-.833m-92.064 10.5c.283.458.938.833 1.456.833s.941-.375.941-.833c0-.459-.655-.834-1.456-.834-.801 0-1.224.375-.941.834"/></svg>